<mxfile host="Electron" modified="2024-01-06T21:18:30.389Z" agent="Mozilla/5.0 (Windows NT 10.0; Win64; x64) AppleWebKit/537.36 (KHTML, like Gecko) draw.io/22.1.2 Chrome/114.0.5735.289 Electron/25.9.4 Safari/537.36" version="22.1.2" etag="6SFH1ylraHiooGGM1Y3a" type="device">
  <diagram id="KmqMPAlTn-rigEz4RomA" name="Page-1">
    <mxGraphModel dx="1983" dy="847" grid="1" gridSize="10" guides="1" tooltips="1" connect="1" arrows="1" fold="1" page="1" pageScale="1" pageWidth="1169" pageHeight="827" math="0" shadow="0">
      <root>
        <mxCell id="0" />
        <mxCell id="1" parent="0" />
        <mxCell id="483" style="edgeStyle=none;html=1;exitX=0;exitY=1;exitDx=0;exitDy=0;entryX=1.008;entryY=0.462;entryDx=0;entryDy=0;entryPerimeter=0;dashed=1;strokeColor=#b85450;strokeWidth=1;fontSize=8;fontColor=default;startArrow=classic;startFill=1;endArrow=none;endFill=0;fillColor=#f8cecc;gradientColor=#ea6b66;" parent="1" source="252" target="162" edge="1">
          <mxGeometry relative="1" as="geometry" />
        </mxCell>
        <mxCell id="252" value="" style="rounded=0;whiteSpace=wrap;html=1;labelBackgroundColor=none;strokeColor=#2D7600;strokeWidth=2;fontSize=16;fontColor=#ffffff;fillColor=none;dashed=1;" parent="1" vertex="1">
          <mxGeometry x="569.56" y="280" width="440" height="200" as="geometry" />
        </mxCell>
        <mxCell id="258" value="&lt;b&gt;Host-aggregate capacity:&lt;br&gt;&lt;/b&gt;&lt;br&gt;CPU: 100 Core class-1&lt;br&gt;&amp;nbsp; &amp;nbsp; &amp;nbsp; &amp;nbsp; &amp;nbsp; 100 Core class-2&lt;br&gt;&amp;nbsp;&lt;br&gt;&amp;nbsp; &amp;nbsp; &amp;nbsp;MEM: 800 GB class-1 800 GB class-2&lt;br&gt;&lt;br&gt;SSD: 1000 GB class-1&lt;br&gt;&amp;nbsp; &amp;nbsp; &amp;nbsp; &amp;nbsp; &amp;nbsp; 1000 GB class-2&lt;br&gt;&lt;br&gt;HDD: 1000 GB class-1&lt;br&gt;&amp;nbsp; &amp;nbsp; &amp;nbsp; &amp;nbsp; &amp;nbsp; 1000 GB class-2&lt;br&gt;&amp;nbsp; &amp;nbsp; &amp;nbsp; &amp;nbsp;&amp;nbsp;" style="rounded=0;whiteSpace=wrap;html=1;fillStyle=auto;strokeColor=default;strokeWidth=1;fontSize=10;fontColor=default;fillColor=none;gradientColor=none;align=right;dashed=1;dashPattern=1 4;" parent="1" vertex="1">
          <mxGeometry x="669.56" y="290.61" width="130" height="179.39" as="geometry" />
        </mxCell>
        <mxCell id="438" style="edgeStyle=none;html=1;exitX=0;exitY=0.5;exitDx=0;exitDy=0;entryX=1.008;entryY=0.461;entryDx=0;entryDy=0;entryPerimeter=0;dashed=1;strokeColor=#b85450;strokeWidth=1;fontSize=9;fontColor=default;startArrow=classic;startFill=1;endArrow=none;endFill=0;fillColor=#f8cecc;gradientColor=#ea6b66;" parent="1" source="437" target="162" edge="1">
          <mxGeometry relative="1" as="geometry" />
        </mxCell>
        <mxCell id="437" value="" style="rounded=0;whiteSpace=wrap;html=1;labelBackgroundColor=none;strokeColor=#314354;strokeWidth=1;fontSize=10;fontColor=#ffffff;fillColor=#647687;" parent="1" vertex="1">
          <mxGeometry x="590" y="290" width="79.56" height="180" as="geometry" />
        </mxCell>
        <mxCell id="172" style="edgeStyle=none;html=1;exitX=1;exitY=0.5;exitDx=0;exitDy=0;entryX=0.007;entryY=0.038;entryDx=0;entryDy=0;entryPerimeter=0;dashed=1;fontSize=24;fontColor=#6F0000;fillColor=#e3c800;strokeColor=#B09500;" parent="1" source="81" target="160" edge="1">
          <mxGeometry relative="1" as="geometry" />
        </mxCell>
        <mxCell id="81" value="" style="rounded=0;whiteSpace=wrap;html=1;labelBackgroundColor=none;strokeColor=#314354;fontSize=12;fontColor=default;fillColor=none;" parent="1" vertex="1">
          <mxGeometry x="175" y="21" width="155" height="58" as="geometry" />
        </mxCell>
        <mxCell id="173" style="edgeStyle=none;html=1;exitX=1;exitY=0.5;exitDx=0;exitDy=0;entryX=-0.011;entryY=0.127;entryDx=0;entryDy=0;entryPerimeter=0;dashed=1;fontSize=24;fontColor=#6F0000;fillColor=#e3c800;strokeColor=#B09500;" parent="1" source="137" target="160" edge="1">
          <mxGeometry relative="1" as="geometry" />
        </mxCell>
        <mxCell id="137" value="" style="rounded=0;whiteSpace=wrap;html=1;labelBackgroundColor=none;strokeColor=#314354;fontSize=12;fontColor=default;fillColor=none;" parent="1" vertex="1">
          <mxGeometry x="175" y="90" width="155" height="59" as="geometry" />
        </mxCell>
        <mxCell id="175" style="edgeStyle=none;html=1;exitX=1;exitY=0.5;exitDx=0;exitDy=0;entryX=0;entryY=0.308;entryDx=0;entryDy=0;entryPerimeter=0;dashed=1;fontSize=24;fontColor=#6F0000;fillColor=#e3c800;strokeColor=#B09500;" parent="1" source="96" target="160" edge="1">
          <mxGeometry relative="1" as="geometry" />
        </mxCell>
        <mxCell id="96" value="" style="rounded=0;whiteSpace=wrap;html=1;labelBackgroundColor=none;strokeColor=#314354;fontSize=12;fontColor=default;fillColor=none;" parent="1" vertex="1">
          <mxGeometry x="175" y="230" width="105" height="60" as="geometry" />
        </mxCell>
        <mxCell id="2" value="PC" style="fontColor=default;verticalAlign=top;verticalLabelPosition=bottom;labelPosition=center;align=center;html=1;outlineConnect=0;fillColor=#647687;strokeColor=#314354;gradientDirection=north;strokeWidth=2;shape=mxgraph.networks.pc;fontSize=12;" parent="1" vertex="1">
          <mxGeometry x="85" y="385.5" width="50" height="41" as="geometry" />
        </mxCell>
        <mxCell id="3" value="Laptop" style="fontColor=default;verticalAlign=top;verticalLabelPosition=bottom;labelPosition=center;align=center;html=1;outlineConnect=0;fillColor=#647687;strokeColor=#314354;gradientDirection=north;strokeWidth=2;shape=mxgraph.networks.laptop;fontSize=12;" parent="1" vertex="1">
          <mxGeometry x="788.25" y="735" width="60" height="40" as="geometry" />
        </mxCell>
        <mxCell id="4" value="Home server" style="sketch=0;pointerEvents=1;shadow=0;dashed=0;html=1;strokeColor=#314354;labelPosition=center;verticalLabelPosition=bottom;verticalAlign=top;outlineConnect=0;align=center;shape=mxgraph.office.servers.server_generic;fillColor=#647687;fontColor=default;fontSize=12;" parent="1" vertex="1">
          <mxGeometry x="93.75" y="690" width="32.5" height="60" as="geometry" />
        </mxCell>
        <mxCell id="165" style="edgeStyle=none;html=1;entryX=0;entryY=0.423;entryDx=0;entryDy=0;entryPerimeter=0;dashed=1;fontSize=24;fontColor=#6F0000;fillColor=#e3c800;strokeColor=#B09500;" parent="1" source="7" target="160" edge="1">
          <mxGeometry relative="1" as="geometry" />
        </mxCell>
        <mxCell id="7" value="&lt;font style=&quot;font-size: 12px;&quot;&gt;MEM&lt;/font&gt;" style="sketch=0;pointerEvents=1;shadow=0;dashed=0;html=1;strokeColor=default;fillColor=#005F4B;labelPosition=center;verticalLabelPosition=bottom;verticalAlign=top;align=center;outlineConnect=0;shape=mxgraph.veeam2.ram;fontColor=default;fontSize=12;" parent="1" vertex="1">
          <mxGeometry x="176" y="340" width="40" height="19" as="geometry" />
        </mxCell>
        <mxCell id="166" style="edgeStyle=none;html=1;entryX=0;entryY=0.571;entryDx=0;entryDy=0;entryPerimeter=0;dashed=1;fontSize=24;fontColor=#6F0000;fillColor=#e3c800;strokeColor=#B09500;" parent="1" source="10" target="160" edge="1">
          <mxGeometry relative="1" as="geometry" />
        </mxCell>
        <mxCell id="10" value="&lt;span style=&quot;font-size: 12px;&quot;&gt;GPU&lt;/span&gt;" style="sketch=0;pointerEvents=1;shadow=0;dashed=0;html=1;strokeColor=default;fillColor=#005F4B;labelPosition=center;verticalLabelPosition=bottom;verticalAlign=top;align=center;outlineConnect=0;shape=mxgraph.veeam2.cpu;fontColor=default;fontSize=12;" parent="1" vertex="1">
          <mxGeometry x="181" y="450" width="30" height="30" as="geometry" />
        </mxCell>
        <mxCell id="171" style="edgeStyle=none;html=1;entryX=-0.073;entryY=0.97;entryDx=0;entryDy=0;entryPerimeter=0;dashed=1;fontSize=24;fontColor=#6F0000;fillColor=#e3c800;strokeColor=#B09500;" parent="1" source="13" target="160" edge="1">
          <mxGeometry relative="1" as="geometry" />
        </mxCell>
        <mxCell id="13" value="&lt;font style=&quot;font-size: 12px;&quot;&gt;SSD/HDD&lt;/font&gt;" style="sketch=0;pointerEvents=1;shadow=0;dashed=0;html=1;strokeColor=none;fillColor=#005F4B;labelPosition=center;verticalLabelPosition=bottom;verticalAlign=top;align=center;outlineConnect=0;shape=mxgraph.veeam2.hdd;fontSize=12;fontColor=default;" parent="1" vertex="1">
          <mxGeometry x="181" y="760" width="28.000000000000004" height="35" as="geometry" />
        </mxCell>
        <mxCell id="164" style="edgeStyle=none;html=1;entryX=0.008;entryY=0.495;entryDx=0;entryDy=0;entryPerimeter=0;fontSize=24;fontColor=#6F0000;dashed=1;fillColor=#e3c800;strokeColor=#B09500;" parent="1" source="34" target="160" edge="1">
          <mxGeometry relative="1" as="geometry" />
        </mxCell>
        <mxCell id="34" value="CPU" style="pointerEvents=1;shadow=0;dashed=0;html=1;strokeColor=default;fillColor=#005F4B;labelPosition=center;verticalLabelPosition=bottom;verticalAlign=top;align=center;outlineConnect=0;shape=mxgraph.veeam.cpu;labelBackgroundColor=none;fontSize=12;fontColor=default;" parent="1" vertex="1">
          <mxGeometry x="179" y="391" width="30" height="30" as="geometry" />
        </mxCell>
        <mxCell id="168" style="edgeStyle=none;html=1;entryX=0;entryY=0.73;entryDx=0;entryDy=0;entryPerimeter=0;dashed=1;fontSize=24;fontColor=#6F0000;fillColor=#e3c800;strokeColor=#B09500;" parent="1" source="37" target="160" edge="1">
          <mxGeometry relative="1" as="geometry" />
        </mxCell>
        <mxCell id="37" value="&lt;font style=&quot;font-size: 12px;&quot;&gt;MEM&lt;/font&gt;" style="sketch=0;pointerEvents=1;shadow=0;dashed=0;html=1;strokeColor=default;fillColor=#005F4B;labelPosition=center;verticalLabelPosition=bottom;verticalAlign=top;align=center;outlineConnect=0;shape=mxgraph.veeam2.ram;fontColor=default;fontSize=12;" parent="1" vertex="1">
          <mxGeometry x="175" y="580" width="40" height="19" as="geometry" />
        </mxCell>
        <mxCell id="167" style="edgeStyle=none;html=1;entryX=0;entryY=0.66;entryDx=0;entryDy=0;entryPerimeter=0;dashed=1;fontSize=24;fontColor=#6F0000;fillColor=#e3c800;strokeColor=#B09500;" parent="1" source="39" target="160" edge="1">
          <mxGeometry relative="1" as="geometry" />
        </mxCell>
        <mxCell id="39" value="CPU" style="pointerEvents=1;shadow=0;dashed=0;html=1;strokeColor=default;fillColor=#005F4B;labelPosition=center;verticalLabelPosition=bottom;verticalAlign=top;align=center;outlineConnect=0;shape=mxgraph.veeam.cpu;labelBackgroundColor=none;fontSize=12;fontColor=default;" parent="1" vertex="1">
          <mxGeometry x="180" y="520" width="30" height="30" as="geometry" />
        </mxCell>
        <mxCell id="170" style="edgeStyle=none;html=1;entryX=0;entryY=0.897;entryDx=0;entryDy=0;entryPerimeter=0;dashed=1;fontSize=24;fontColor=#6F0000;fillColor=#e3c800;strokeColor=#B09500;" parent="1" source="40" target="160" edge="1">
          <mxGeometry relative="1" as="geometry" />
        </mxCell>
        <mxCell id="40" value="&lt;font style=&quot;font-size: 12px;&quot;&gt;MEM&lt;/font&gt;" style="sketch=0;pointerEvents=1;shadow=0;dashed=0;html=1;strokeColor=default;fillColor=#005F4B;labelPosition=center;verticalLabelPosition=bottom;verticalAlign=top;align=center;outlineConnect=0;shape=mxgraph.veeam2.ram;fontColor=default;fontSize=12;" parent="1" vertex="1">
          <mxGeometry x="175" y="710.5" width="40" height="19" as="geometry" />
        </mxCell>
        <mxCell id="169" style="edgeStyle=none;html=1;entryX=0;entryY=0.827;entryDx=0;entryDy=0;entryPerimeter=0;dashed=1;fontSize=24;fontColor=#6F0000;fillColor=#e3c800;strokeColor=#B09500;" parent="1" source="41" target="160" edge="1">
          <mxGeometry relative="1" as="geometry" />
        </mxCell>
        <mxCell id="41" value="CPU" style="pointerEvents=1;shadow=0;dashed=0;html=1;strokeColor=default;fillColor=#005F4B;labelPosition=center;verticalLabelPosition=bottom;verticalAlign=top;align=center;outlineConnect=0;shape=mxgraph.veeam.cpu;labelBackgroundColor=none;fontSize=12;fontColor=default;" parent="1" vertex="1">
          <mxGeometry x="180" y="650" width="30" height="30" as="geometry" />
        </mxCell>
        <mxCell id="399" style="edgeStyle=none;html=1;entryX=1.07;entryY=0.127;entryDx=0;entryDy=0;entryPerimeter=0;dashed=1;strokeColor=#b85450;strokeWidth=1;fontSize=10;fontColor=default;startArrow=classic;startFill=1;endArrow=none;endFill=0;fillColor=#f8cecc;gradientColor=#ea6b66;" parent="1" source="42" target="162" edge="1">
          <mxGeometry relative="1" as="geometry" />
        </mxCell>
        <mxCell id="42" value="" style="sketch=0;pointerEvents=1;shadow=0;dashed=0;html=1;strokeColor=#6F0000;labelPosition=center;verticalLabelPosition=bottom;verticalAlign=top;outlineConnect=0;align=center;shape=mxgraph.office.servers.server_generic;fillColor=#a20025;fontColor=#ffffff;" parent="1" vertex="1">
          <mxGeometry x="616.75" y="89" width="30" height="60" as="geometry" />
        </mxCell>
        <mxCell id="55" value="dedicated&lt;br style=&quot;font-size: 12px;&quot;&gt;root server" style="verticalLabelPosition=bottom;html=1;verticalAlign=top;align=center;strokeColor=default;fillColor=#647687;shape=mxgraph.azure.server;labelBackgroundColor=none;fontSize=12;fontColor=default;" parent="1" vertex="1">
          <mxGeometry x="80" y="40" width="60" height="20" as="geometry" />
        </mxCell>
        <mxCell id="56" value="dedicated&lt;br style=&quot;font-size: 12px;&quot;&gt;root server" style="verticalLabelPosition=bottom;html=1;verticalAlign=top;align=center;strokeColor=default;fillColor=#647687;shape=mxgraph.azure.server;labelBackgroundColor=none;fontSize=12;fontColor=default;" parent="1" vertex="1">
          <mxGeometry x="80" y="110" width="60" height="20" as="geometry" />
        </mxCell>
        <mxCell id="60" value="dedicated&lt;br style=&quot;font-size: 12px;&quot;&gt;root server" style="verticalLabelPosition=bottom;html=1;verticalAlign=top;align=center;strokeColor=default;fillColor=#647687;shape=mxgraph.azure.server;labelBackgroundColor=none;fontSize=12;fontColor=default;" parent="1" vertex="1">
          <mxGeometry x="80" y="179.5" width="60" height="20" as="geometry" />
        </mxCell>
        <mxCell id="61" value="dedicated&lt;br style=&quot;font-size: 12px;&quot;&gt;root server" style="verticalLabelPosition=bottom;html=1;verticalAlign=top;align=center;strokeColor=default;fillColor=#647687;shape=mxgraph.azure.server;labelBackgroundColor=none;fontSize=12;fontColor=default;" parent="1" vertex="1">
          <mxGeometry x="80" y="250" width="60" height="20" as="geometry" />
        </mxCell>
        <mxCell id="62" value="" style="sketch=0;pointerEvents=1;shadow=0;dashed=0;html=1;strokeColor=default;fillColor=#005F4B;labelPosition=center;verticalLabelPosition=bottom;verticalAlign=top;align=center;outlineConnect=0;shape=mxgraph.veeam2.ram;fontColor=default;fontSize=12;" parent="1" vertex="1">
          <mxGeometry x="235" y="29" width="20" height="10" as="geometry" />
        </mxCell>
        <mxCell id="63" value="" style="pointerEvents=1;shadow=0;dashed=0;html=1;strokeColor=default;fillColor=#005F4B;labelPosition=center;verticalLabelPosition=bottom;verticalAlign=top;align=center;outlineConnect=0;shape=mxgraph.veeam.cpu;labelBackgroundColor=none;fontSize=12;fontColor=default;" parent="1" vertex="1">
          <mxGeometry x="185" y="30" width="20" height="20" as="geometry" />
        </mxCell>
        <mxCell id="64" value="" style="pointerEvents=1;shadow=0;dashed=0;html=1;strokeColor=default;fillColor=#005F4B;labelPosition=center;verticalLabelPosition=bottom;verticalAlign=top;align=center;outlineConnect=0;shape=mxgraph.veeam.cpu;labelBackgroundColor=none;fontSize=12;fontColor=default;" parent="1" vertex="1">
          <mxGeometry x="205" y="30" width="20" height="20" as="geometry" />
        </mxCell>
        <mxCell id="65" value="" style="pointerEvents=1;shadow=0;dashed=0;html=1;strokeColor=default;fillColor=#005F4B;labelPosition=center;verticalLabelPosition=bottom;verticalAlign=top;align=center;outlineConnect=0;shape=mxgraph.veeam.cpu;labelBackgroundColor=none;fontSize=12;fontColor=default;" parent="1" vertex="1">
          <mxGeometry x="185" y="50" width="20" height="20" as="geometry" />
        </mxCell>
        <mxCell id="66" value="" style="pointerEvents=1;shadow=0;dashed=0;html=1;strokeColor=default;fillColor=#005F4B;labelPosition=center;verticalLabelPosition=bottom;verticalAlign=top;align=center;outlineConnect=0;shape=mxgraph.veeam.cpu;labelBackgroundColor=none;fontSize=12;fontColor=default;" parent="1" vertex="1">
          <mxGeometry x="205" y="50" width="20" height="20" as="geometry" />
        </mxCell>
        <mxCell id="68" value="" style="sketch=0;pointerEvents=1;shadow=0;dashed=0;html=1;strokeColor=default;fillColor=#005F4B;labelPosition=center;verticalLabelPosition=bottom;verticalAlign=top;align=center;outlineConnect=0;shape=mxgraph.veeam2.ram;fontColor=default;fontSize=12;" parent="1" vertex="1">
          <mxGeometry x="235" y="49" width="20" height="10" as="geometry" />
        </mxCell>
        <mxCell id="70" value="" style="sketch=0;pointerEvents=1;shadow=0;dashed=0;html=1;strokeColor=default;fillColor=#005F4B;labelPosition=center;verticalLabelPosition=bottom;verticalAlign=top;align=center;outlineConnect=0;shape=mxgraph.veeam2.ram;fontColor=default;fontSize=12;" parent="1" vertex="1">
          <mxGeometry x="235" y="39" width="20" height="10" as="geometry" />
        </mxCell>
        <mxCell id="72" value="" style="sketch=0;pointerEvents=1;shadow=0;dashed=0;html=1;strokeColor=default;fillColor=#005F4B;labelPosition=center;verticalLabelPosition=bottom;verticalAlign=top;align=center;outlineConnect=0;shape=mxgraph.veeam2.ram;fontColor=default;fontSize=12;" parent="1" vertex="1">
          <mxGeometry x="235" y="59" width="20" height="10" as="geometry" />
        </mxCell>
        <mxCell id="73" value="" style="sketch=0;pointerEvents=1;shadow=0;dashed=0;html=1;strokeColor=default;fillColor=#005F4B;labelPosition=center;verticalLabelPosition=bottom;verticalAlign=top;align=center;outlineConnect=0;shape=mxgraph.veeam2.ram;fontColor=default;fontSize=12;" parent="1" vertex="1">
          <mxGeometry x="255" y="29" width="20" height="10" as="geometry" />
        </mxCell>
        <mxCell id="74" value="" style="sketch=0;pointerEvents=1;shadow=0;dashed=0;html=1;strokeColor=default;fillColor=#005F4B;labelPosition=center;verticalLabelPosition=bottom;verticalAlign=top;align=center;outlineConnect=0;shape=mxgraph.veeam2.ram;fontColor=default;fontSize=12;" parent="1" vertex="1">
          <mxGeometry x="255" y="49" width="20" height="10" as="geometry" />
        </mxCell>
        <mxCell id="75" value="" style="sketch=0;pointerEvents=1;shadow=0;dashed=0;html=1;strokeColor=default;fillColor=#005F4B;labelPosition=center;verticalLabelPosition=bottom;verticalAlign=top;align=center;outlineConnect=0;shape=mxgraph.veeam2.ram;fontColor=default;fontSize=12;" parent="1" vertex="1">
          <mxGeometry x="255" y="39" width="20" height="10" as="geometry" />
        </mxCell>
        <mxCell id="76" value="" style="sketch=0;pointerEvents=1;shadow=0;dashed=0;html=1;strokeColor=default;fillColor=#005F4B;labelPosition=center;verticalLabelPosition=bottom;verticalAlign=top;align=center;outlineConnect=0;shape=mxgraph.veeam2.ram;fontColor=default;fontSize=12;" parent="1" vertex="1">
          <mxGeometry x="255" y="59" width="20" height="10" as="geometry" />
        </mxCell>
        <mxCell id="82" value="" style="sketch=0;pointerEvents=1;shadow=0;dashed=0;html=1;strokeColor=default;fillColor=#005F4B;labelPosition=center;verticalLabelPosition=bottom;verticalAlign=top;align=center;outlineConnect=0;shape=mxgraph.veeam2.ram;fontColor=default;fontSize=12;" parent="1" vertex="1">
          <mxGeometry x="215" y="240" width="20" height="10" as="geometry" />
        </mxCell>
        <mxCell id="83" value="" style="pointerEvents=1;shadow=0;dashed=0;html=1;strokeColor=default;fillColor=#005F4B;labelPosition=center;verticalLabelPosition=bottom;verticalAlign=top;align=center;outlineConnect=0;shape=mxgraph.veeam.cpu;labelBackgroundColor=none;fontSize=12;fontColor=default;" parent="1" vertex="1">
          <mxGeometry x="185" y="240" width="20" height="20" as="geometry" />
        </mxCell>
        <mxCell id="85" value="" style="pointerEvents=1;shadow=0;dashed=0;html=1;strokeColor=default;fillColor=#005F4B;labelPosition=center;verticalLabelPosition=bottom;verticalAlign=top;align=center;outlineConnect=0;shape=mxgraph.veeam.cpu;labelBackgroundColor=none;fontSize=12;fontColor=default;" parent="1" vertex="1">
          <mxGeometry x="185" y="260" width="20" height="20" as="geometry" />
        </mxCell>
        <mxCell id="87" value="" style="sketch=0;pointerEvents=1;shadow=0;dashed=0;html=1;strokeColor=default;fillColor=#005F4B;labelPosition=center;verticalLabelPosition=bottom;verticalAlign=top;align=center;outlineConnect=0;shape=mxgraph.veeam2.ram;fontColor=default;fontSize=12;" parent="1" vertex="1">
          <mxGeometry x="215" y="260" width="20" height="10" as="geometry" />
        </mxCell>
        <mxCell id="88" value="" style="sketch=0;pointerEvents=1;shadow=0;dashed=0;html=1;strokeColor=default;fillColor=#005F4B;labelPosition=center;verticalLabelPosition=bottom;verticalAlign=top;align=center;outlineConnect=0;shape=mxgraph.veeam2.ram;fontColor=default;fontSize=12;" parent="1" vertex="1">
          <mxGeometry x="215" y="250" width="20" height="10" as="geometry" />
        </mxCell>
        <mxCell id="89" value="" style="sketch=0;pointerEvents=1;shadow=0;dashed=0;html=1;strokeColor=default;fillColor=#005F4B;labelPosition=center;verticalLabelPosition=bottom;verticalAlign=top;align=center;outlineConnect=0;shape=mxgraph.veeam2.ram;fontColor=default;fontSize=12;" parent="1" vertex="1">
          <mxGeometry x="215" y="270" width="20" height="10" as="geometry" />
        </mxCell>
        <mxCell id="97" value="" style="sketch=0;pointerEvents=1;shadow=0;dashed=0;html=1;strokeColor=default;fillColor=#005F4B;labelPosition=center;verticalLabelPosition=bottom;verticalAlign=top;align=center;outlineConnect=0;shape=mxgraph.veeam2.ram;fontColor=default;fontSize=12;" parent="1" vertex="1">
          <mxGeometry x="235" y="169" width="20" height="10" as="geometry" />
        </mxCell>
        <mxCell id="98" value="" style="pointerEvents=1;shadow=0;dashed=0;html=1;strokeColor=default;fillColor=#005F4B;labelPosition=center;verticalLabelPosition=bottom;verticalAlign=top;align=center;outlineConnect=0;shape=mxgraph.veeam.cpu;labelBackgroundColor=none;fontSize=12;fontColor=default;" parent="1" vertex="1">
          <mxGeometry x="185" y="170" width="20" height="20" as="geometry" />
        </mxCell>
        <mxCell id="99" value="" style="pointerEvents=1;shadow=0;dashed=0;html=1;strokeColor=default;fillColor=#005F4B;labelPosition=center;verticalLabelPosition=bottom;verticalAlign=top;align=center;outlineConnect=0;shape=mxgraph.veeam.cpu;labelBackgroundColor=none;fontSize=12;fontColor=default;" parent="1" vertex="1">
          <mxGeometry x="205" y="170" width="20" height="20" as="geometry" />
        </mxCell>
        <mxCell id="100" value="" style="pointerEvents=1;shadow=0;dashed=0;html=1;strokeColor=default;fillColor=#005F4B;labelPosition=center;verticalLabelPosition=bottom;verticalAlign=top;align=center;outlineConnect=0;shape=mxgraph.veeam.cpu;labelBackgroundColor=none;fontSize=12;fontColor=default;" parent="1" vertex="1">
          <mxGeometry x="185" y="190" width="20" height="20" as="geometry" />
        </mxCell>
        <mxCell id="101" value="" style="pointerEvents=1;shadow=0;dashed=0;html=1;strokeColor=default;fillColor=#005F4B;labelPosition=center;verticalLabelPosition=bottom;verticalAlign=top;align=center;outlineConnect=0;shape=mxgraph.veeam.cpu;labelBackgroundColor=none;fontSize=12;fontColor=default;" parent="1" vertex="1">
          <mxGeometry x="205" y="190" width="20" height="20" as="geometry" />
        </mxCell>
        <mxCell id="102" value="" style="sketch=0;pointerEvents=1;shadow=0;dashed=0;html=1;strokeColor=default;fillColor=#005F4B;labelPosition=center;verticalLabelPosition=bottom;verticalAlign=top;align=center;outlineConnect=0;shape=mxgraph.veeam2.ram;fontColor=default;fontSize=12;" parent="1" vertex="1">
          <mxGeometry x="235" y="189" width="20" height="10" as="geometry" />
        </mxCell>
        <mxCell id="103" value="" style="sketch=0;pointerEvents=1;shadow=0;dashed=0;html=1;strokeColor=default;fillColor=#005F4B;labelPosition=center;verticalLabelPosition=bottom;verticalAlign=top;align=center;outlineConnect=0;shape=mxgraph.veeam2.ram;fontColor=default;fontSize=12;" parent="1" vertex="1">
          <mxGeometry x="235" y="179" width="20" height="10" as="geometry" />
        </mxCell>
        <mxCell id="104" value="" style="sketch=0;pointerEvents=1;shadow=0;dashed=0;html=1;strokeColor=default;fillColor=#005F4B;labelPosition=center;verticalLabelPosition=bottom;verticalAlign=top;align=center;outlineConnect=0;shape=mxgraph.veeam2.ram;fontColor=default;fontSize=12;" parent="1" vertex="1">
          <mxGeometry x="235" y="199" width="20" height="10" as="geometry" />
        </mxCell>
        <mxCell id="105" value="" style="sketch=0;pointerEvents=1;shadow=0;dashed=0;html=1;strokeColor=default;fillColor=#005F4B;labelPosition=center;verticalLabelPosition=bottom;verticalAlign=top;align=center;outlineConnect=0;shape=mxgraph.veeam2.ram;fontColor=default;fontSize=12;" parent="1" vertex="1">
          <mxGeometry x="255" y="169" width="20" height="10" as="geometry" />
        </mxCell>
        <mxCell id="106" value="" style="sketch=0;pointerEvents=1;shadow=0;dashed=0;html=1;strokeColor=default;fillColor=#005F4B;labelPosition=center;verticalLabelPosition=bottom;verticalAlign=top;align=center;outlineConnect=0;shape=mxgraph.veeam2.ram;fontColor=default;fontSize=12;" parent="1" vertex="1">
          <mxGeometry x="255" y="189" width="20" height="10" as="geometry" />
        </mxCell>
        <mxCell id="107" value="" style="sketch=0;pointerEvents=1;shadow=0;dashed=0;html=1;strokeColor=default;fillColor=#005F4B;labelPosition=center;verticalLabelPosition=bottom;verticalAlign=top;align=center;outlineConnect=0;shape=mxgraph.veeam2.ram;fontColor=default;fontSize=12;" parent="1" vertex="1">
          <mxGeometry x="255" y="179" width="20" height="10" as="geometry" />
        </mxCell>
        <mxCell id="108" value="" style="sketch=0;pointerEvents=1;shadow=0;dashed=0;html=1;strokeColor=default;fillColor=#005F4B;labelPosition=center;verticalLabelPosition=bottom;verticalAlign=top;align=center;outlineConnect=0;shape=mxgraph.veeam2.ram;fontColor=default;fontSize=12;" parent="1" vertex="1">
          <mxGeometry x="255" y="199" width="20" height="10" as="geometry" />
        </mxCell>
        <mxCell id="174" style="edgeStyle=none;html=1;exitX=1;exitY=0.5;exitDx=0;exitDy=0;entryX=0;entryY=0.218;entryDx=0;entryDy=0;entryPerimeter=0;dashed=1;fontSize=24;fontColor=#6F0000;fillColor=#e3c800;strokeColor=#B09500;" parent="1" source="111" target="160" edge="1">
          <mxGeometry relative="1" as="geometry" />
        </mxCell>
        <mxCell id="111" value="" style="rounded=0;whiteSpace=wrap;html=1;labelBackgroundColor=none;strokeColor=#314354;fontSize=12;fontColor=default;fillColor=none;" parent="1" vertex="1">
          <mxGeometry x="175" y="160" width="135" height="60" as="geometry" />
        </mxCell>
        <mxCell id="123" value="" style="sketch=0;pointerEvents=1;shadow=0;dashed=0;html=1;strokeColor=default;fillColor=#005F4B;labelPosition=center;verticalLabelPosition=bottom;verticalAlign=top;align=center;outlineConnect=0;shape=mxgraph.veeam2.ram;fontColor=default;fontSize=12;" parent="1" vertex="1">
          <mxGeometry x="215" y="100" width="20" height="10" as="geometry" />
        </mxCell>
        <mxCell id="124" value="" style="pointerEvents=1;shadow=0;dashed=0;html=1;strokeColor=default;fillColor=#005F4B;labelPosition=center;verticalLabelPosition=bottom;verticalAlign=top;align=center;outlineConnect=0;shape=mxgraph.veeam.cpu;labelBackgroundColor=none;fontSize=12;fontColor=default;" parent="1" vertex="1">
          <mxGeometry x="185" y="100" width="20" height="20" as="geometry" />
        </mxCell>
        <mxCell id="126" value="" style="pointerEvents=1;shadow=0;dashed=0;html=1;strokeColor=default;fillColor=#005F4B;labelPosition=center;verticalLabelPosition=bottom;verticalAlign=top;align=center;outlineConnect=0;shape=mxgraph.veeam.cpu;labelBackgroundColor=none;fontSize=12;fontColor=default;" parent="1" vertex="1">
          <mxGeometry x="185" y="120" width="20" height="20" as="geometry" />
        </mxCell>
        <mxCell id="128" value="" style="sketch=0;pointerEvents=1;shadow=0;dashed=0;html=1;strokeColor=default;fillColor=#005F4B;labelPosition=center;verticalLabelPosition=bottom;verticalAlign=top;align=center;outlineConnect=0;shape=mxgraph.veeam2.ram;fontColor=default;fontSize=12;" parent="1" vertex="1">
          <mxGeometry x="215" y="120" width="20" height="10" as="geometry" />
        </mxCell>
        <mxCell id="129" value="" style="sketch=0;pointerEvents=1;shadow=0;dashed=0;html=1;strokeColor=default;fillColor=#005F4B;labelPosition=center;verticalLabelPosition=bottom;verticalAlign=top;align=center;outlineConnect=0;shape=mxgraph.veeam2.ram;fontColor=default;fontSize=12;" parent="1" vertex="1">
          <mxGeometry x="215" y="110" width="20" height="10" as="geometry" />
        </mxCell>
        <mxCell id="130" value="" style="sketch=0;pointerEvents=1;shadow=0;dashed=0;html=1;strokeColor=default;fillColor=#005F4B;labelPosition=center;verticalLabelPosition=bottom;verticalAlign=top;align=center;outlineConnect=0;shape=mxgraph.veeam2.ram;fontColor=default;fontSize=12;" parent="1" vertex="1">
          <mxGeometry x="215" y="130" width="20" height="10" as="geometry" />
        </mxCell>
        <mxCell id="135" value="" style="sketch=0;pointerEvents=1;shadow=0;dashed=0;html=1;strokeColor=none;fillColor=#005F4B;labelPosition=center;verticalLabelPosition=bottom;verticalAlign=top;align=center;outlineConnect=0;shape=mxgraph.veeam2.hdd;fontSize=12;fontColor=default;" parent="1" vertex="1">
          <mxGeometry x="245" y="100" width="15" height="20" as="geometry" />
        </mxCell>
        <mxCell id="136" value="" style="sketch=0;pointerEvents=1;shadow=0;dashed=0;html=1;strokeColor=none;fillColor=#005F4B;labelPosition=center;verticalLabelPosition=bottom;verticalAlign=top;align=center;outlineConnect=0;shape=mxgraph.veeam2.hdd;fontSize=12;fontColor=default;" parent="1" vertex="1">
          <mxGeometry x="245" y="120" width="15" height="20" as="geometry" />
        </mxCell>
        <mxCell id="142" value="" style="sketch=0;pointerEvents=1;shadow=0;dashed=0;html=1;strokeColor=none;fillColor=#005F4B;labelPosition=center;verticalLabelPosition=bottom;verticalAlign=top;align=center;outlineConnect=0;shape=mxgraph.veeam2.hdd;fontSize=12;fontColor=default;" parent="1" vertex="1">
          <mxGeometry x="260" y="100" width="15" height="20" as="geometry" />
        </mxCell>
        <mxCell id="143" value="" style="sketch=0;pointerEvents=1;shadow=0;dashed=0;html=1;strokeColor=none;fillColor=#005F4B;labelPosition=center;verticalLabelPosition=bottom;verticalAlign=top;align=center;outlineConnect=0;shape=mxgraph.veeam2.hdd;fontSize=12;fontColor=default;" parent="1" vertex="1">
          <mxGeometry x="260" y="120" width="15" height="20" as="geometry" />
        </mxCell>
        <mxCell id="144" value="" style="sketch=0;pointerEvents=1;shadow=0;dashed=0;html=1;strokeColor=none;fillColor=#005F4B;labelPosition=center;verticalLabelPosition=bottom;verticalAlign=top;align=center;outlineConnect=0;shape=mxgraph.veeam2.hdd;fontSize=12;fontColor=default;" parent="1" vertex="1">
          <mxGeometry x="275" y="100" width="15" height="20" as="geometry" />
        </mxCell>
        <mxCell id="145" value="" style="sketch=0;pointerEvents=1;shadow=0;dashed=0;html=1;strokeColor=none;fillColor=#005F4B;labelPosition=center;verticalLabelPosition=bottom;verticalAlign=top;align=center;outlineConnect=0;shape=mxgraph.veeam2.hdd;fontSize=12;fontColor=default;" parent="1" vertex="1">
          <mxGeometry x="275" y="120" width="15" height="20" as="geometry" />
        </mxCell>
        <mxCell id="146" value="" style="sketch=0;pointerEvents=1;shadow=0;dashed=0;html=1;strokeColor=none;fillColor=#005F4B;labelPosition=center;verticalLabelPosition=bottom;verticalAlign=top;align=center;outlineConnect=0;shape=mxgraph.veeam2.hdd;fontSize=12;fontColor=default;" parent="1" vertex="1">
          <mxGeometry x="290" y="100" width="15" height="20" as="geometry" />
        </mxCell>
        <mxCell id="147" value="" style="sketch=0;pointerEvents=1;shadow=0;dashed=0;html=1;strokeColor=none;fillColor=#005F4B;labelPosition=center;verticalLabelPosition=bottom;verticalAlign=top;align=center;outlineConnect=0;shape=mxgraph.veeam2.hdd;fontSize=12;fontColor=default;" parent="1" vertex="1">
          <mxGeometry x="290" y="120" width="15" height="20" as="geometry" />
        </mxCell>
        <mxCell id="148" value="" style="sketch=0;pointerEvents=1;shadow=0;dashed=0;html=1;strokeColor=none;fillColor=#005F4B;labelPosition=center;verticalLabelPosition=bottom;verticalAlign=top;align=center;outlineConnect=0;shape=mxgraph.veeam2.hdd;fontSize=12;fontColor=default;" parent="1" vertex="1">
          <mxGeometry x="305" y="100" width="15" height="20" as="geometry" />
        </mxCell>
        <mxCell id="149" value="" style="sketch=0;pointerEvents=1;shadow=0;dashed=0;html=1;strokeColor=none;fillColor=#005F4B;labelPosition=center;verticalLabelPosition=bottom;verticalAlign=top;align=center;outlineConnect=0;shape=mxgraph.veeam2.hdd;fontSize=12;fontColor=default;" parent="1" vertex="1">
          <mxGeometry x="305" y="120" width="15" height="20" as="geometry" />
        </mxCell>
        <mxCell id="150" value="" style="sketch=0;pointerEvents=1;shadow=0;dashed=0;html=1;strokeColor=none;fillColor=#005F4B;labelPosition=center;verticalLabelPosition=bottom;verticalAlign=top;align=center;outlineConnect=0;shape=mxgraph.veeam2.hdd;fontSize=12;fontColor=default;" parent="1" vertex="1">
          <mxGeometry x="290" y="30" width="15" height="20" as="geometry" />
        </mxCell>
        <mxCell id="151" value="" style="sketch=0;pointerEvents=1;shadow=0;dashed=0;html=1;strokeColor=none;fillColor=#005F4B;labelPosition=center;verticalLabelPosition=bottom;verticalAlign=top;align=center;outlineConnect=0;shape=mxgraph.veeam2.hdd;fontSize=12;fontColor=default;" parent="1" vertex="1">
          <mxGeometry x="290" y="50" width="15" height="20" as="geometry" />
        </mxCell>
        <mxCell id="152" value="" style="sketch=0;pointerEvents=1;shadow=0;dashed=0;html=1;strokeColor=none;fillColor=#005F4B;labelPosition=center;verticalLabelPosition=bottom;verticalAlign=top;align=center;outlineConnect=0;shape=mxgraph.veeam2.hdd;fontSize=12;fontColor=default;" parent="1" vertex="1">
          <mxGeometry x="305" y="30" width="15" height="20" as="geometry" />
        </mxCell>
        <mxCell id="153" value="" style="sketch=0;pointerEvents=1;shadow=0;dashed=0;html=1;strokeColor=none;fillColor=#005F4B;labelPosition=center;verticalLabelPosition=bottom;verticalAlign=top;align=center;outlineConnect=0;shape=mxgraph.veeam2.hdd;fontSize=12;fontColor=default;" parent="1" vertex="1">
          <mxGeometry x="305" y="50" width="15" height="20" as="geometry" />
        </mxCell>
        <mxCell id="154" value="" style="sketch=0;pointerEvents=1;shadow=0;dashed=0;html=1;strokeColor=none;fillColor=#005F4B;labelPosition=center;verticalLabelPosition=bottom;verticalAlign=top;align=center;outlineConnect=0;shape=mxgraph.veeam2.hdd;fontSize=12;fontColor=default;" parent="1" vertex="1">
          <mxGeometry x="290" y="170" width="15" height="20" as="geometry" />
        </mxCell>
        <mxCell id="155" value="" style="sketch=0;pointerEvents=1;shadow=0;dashed=0;html=1;strokeColor=none;fillColor=#005F4B;labelPosition=center;verticalLabelPosition=bottom;verticalAlign=top;align=center;outlineConnect=0;shape=mxgraph.veeam2.hdd;fontSize=12;fontColor=default;" parent="1" vertex="1">
          <mxGeometry x="290" y="190" width="15" height="20" as="geometry" />
        </mxCell>
        <mxCell id="158" value="" style="sketch=0;pointerEvents=1;shadow=0;dashed=0;html=1;strokeColor=none;fillColor=#005F4B;labelPosition=center;verticalLabelPosition=bottom;verticalAlign=top;align=center;outlineConnect=0;shape=mxgraph.veeam2.hdd;fontSize=12;fontColor=default;" parent="1" vertex="1">
          <mxGeometry x="255" y="240" width="15" height="20" as="geometry" />
        </mxCell>
        <mxCell id="159" value="" style="sketch=0;pointerEvents=1;shadow=0;dashed=0;html=1;strokeColor=none;fillColor=#005F4B;labelPosition=center;verticalLabelPosition=bottom;verticalAlign=top;align=center;outlineConnect=0;shape=mxgraph.veeam2.hdd;fontSize=12;fontColor=default;" parent="1" vertex="1">
          <mxGeometry x="255" y="260" width="15" height="20" as="geometry" />
        </mxCell>
        <mxCell id="176" style="edgeStyle=none;html=1;exitX=1;exitY=0.25;exitDx=0;exitDy=0;entryX=0;entryY=0.25;entryDx=0;entryDy=0;dashed=1;fontSize=24;fontColor=#6F0000;" parent="1" source="160" target="162" edge="1">
          <mxGeometry relative="1" as="geometry" />
        </mxCell>
        <mxCell id="177" style="edgeStyle=none;html=1;exitX=1;exitY=0.5;exitDx=0;exitDy=0;dashed=1;fontSize=24;fontColor=#6F0000;" parent="1" source="160" target="162" edge="1">
          <mxGeometry relative="1" as="geometry" />
        </mxCell>
        <mxCell id="178" style="edgeStyle=none;html=1;exitX=1;exitY=0.75;exitDx=0;exitDy=0;entryX=0;entryY=0.75;entryDx=0;entryDy=0;dashed=1;fontSize=24;fontColor=#6F0000;" parent="1" source="160" target="162" edge="1">
          <mxGeometry relative="1" as="geometry" />
        </mxCell>
        <mxCell id="160" value="&lt;font style=&quot;font-size: 24px;&quot;&gt;&lt;font color=&quot;#6c8ebf&quot;&gt;N&lt;br&gt;&lt;/font&gt;&lt;font style=&quot;font-size: 24px;&quot;&gt;&lt;font color=&quot;#6c8ebf&quot;&gt;e&lt;br&gt;t&lt;br&gt;w&lt;br&gt;o&lt;br&gt;r&lt;br&gt;k&lt;br&gt;&lt;br&gt;G&lt;br&gt;a&lt;br&gt;t&lt;br&gt;e&lt;br&gt;k&lt;br&gt;e&lt;br&gt;e&lt;br&gt;p&lt;br&gt;e&lt;br&gt;r&lt;/font&gt;&lt;br&gt;&lt;/font&gt;&lt;/font&gt;" style="rounded=0;whiteSpace=wrap;html=1;labelBackgroundColor=none;strokeColor=#6C8EBF;fontSize=12;fillColor=none;gradientColor=#7ea6e0;strokeWidth=2;" parent="1" vertex="1">
          <mxGeometry x="400" y="20" width="40" height="780" as="geometry" />
        </mxCell>
        <mxCell id="162" value="&lt;font style=&quot;font-size: 24px;&quot;&gt;&lt;font style=&quot;font-size: 24px;&quot;&gt;&lt;font color=&quot;#6f0000&quot;&gt;L&lt;br&gt;O&lt;br&gt;G&lt;br&gt;O&lt;br&gt;S&lt;br&gt;&lt;/font&gt;&lt;br&gt;&lt;font color=&quot;#006eaf&quot;&gt;C&lt;br&gt;H&lt;br&gt;A&lt;br&gt;I&lt;br&gt;N&lt;/font&gt;&lt;br&gt;&lt;/font&gt;&lt;/font&gt;" style="rounded=0;whiteSpace=wrap;html=1;labelBackgroundColor=none;strokeColor=#b85450;fontSize=12;fillColor=none;gradientColor=#ea6b66;strokeWidth=2;" parent="1" vertex="1">
          <mxGeometry x="480" y="20" width="40" height="780" as="geometry" />
        </mxCell>
        <mxCell id="163" value="&lt;font style=&quot;font-size: 20px;&quot;&gt;&lt;b&gt;&lt;font style=&quot;font-size: 20px;&quot; color=&quot;#6f0000&quot;&gt;Logos &lt;/font&gt;&lt;font style=&quot;font-size: 20px;&quot; color=&quot;#006eaf&quot;&gt;Labs&lt;/font&gt;&lt;/b&gt;&lt;/font&gt;" style="text;html=1;strokeColor=none;fillColor=none;align=center;verticalAlign=middle;whiteSpace=wrap;rounded=0;dashed=1;fontSize=8;rotation=-90;" parent="1" vertex="1">
          <mxGeometry x="-70.00000000000034" y="240" width="205" height="30" as="geometry" />
        </mxCell>
        <mxCell id="179" value="&lt;font size=&quot;1&quot; style=&quot;&quot;&gt;&lt;b style=&quot;font-size: 20px;&quot;&gt;Community&lt;/b&gt;&lt;/font&gt;" style="text;html=1;strokeColor=none;fillColor=none;align=center;verticalAlign=middle;whiteSpace=wrap;rounded=0;dashed=1;labelBackgroundColor=none;strokeWidth=2;fontSize=24;fontColor=default;rotation=-90;" parent="1" vertex="1">
          <mxGeometry x="2.5" y="370" width="60" height="30" as="geometry" />
        </mxCell>
        <mxCell id="180" value="" style="endArrow=none;dashed=1;html=1;fontSize=20;fontColor=default;strokeWidth=2;" parent="1" edge="1">
          <mxGeometry width="50" height="50" relative="1" as="geometry">
            <mxPoint x="10" y="320" as="sourcePoint" />
            <mxPoint x="390" y="320" as="targetPoint" />
          </mxGeometry>
        </mxCell>
        <mxCell id="395" style="edgeStyle=none;html=1;exitX=0;exitY=0.5;exitDx=0;exitDy=0;exitPerimeter=0;entryX=1.019;entryY=0.198;entryDx=0;entryDy=0;entryPerimeter=0;dashed=1;strokeColor=#82b366;strokeWidth=1;fontSize=10;fontColor=default;startArrow=classic;startFill=1;endArrow=none;endFill=0;fillColor=#d5e8d4;gradientColor=#97d077;" parent="1" source="181" target="162" edge="1">
          <mxGeometry relative="1" as="geometry" />
        </mxCell>
        <mxCell id="181" value="" style="verticalLabelPosition=bottom;html=1;verticalAlign=top;align=center;strokeColor=default;fillColor=#647687;shape=mxgraph.azure.server;labelBackgroundColor=none;fontSize=12;fontColor=#ffffff;" parent="1" vertex="1">
          <mxGeometry x="616.75" y="159.5" width="96.5" height="29" as="geometry" />
        </mxCell>
        <mxCell id="396" style="edgeStyle=none;html=1;exitX=0;exitY=0.5;exitDx=0;exitDy=0;exitPerimeter=0;entryX=0;entryY=0.5;entryDx=0;entryDy=0;entryPerimeter=0;dashed=1;strokeColor=#82b366;strokeWidth=1;fontSize=10;fontColor=default;startArrow=classic;startFill=1;endArrow=none;endFill=0;fillColor=#d5e8d4;gradientColor=#97d077;" parent="1" source="182" target="181" edge="1">
          <mxGeometry relative="1" as="geometry" />
        </mxCell>
        <mxCell id="182" value="" style="verticalLabelPosition=bottom;html=1;verticalAlign=top;align=center;strokeColor=default;fillColor=#647687;shape=mxgraph.azure.server;labelBackgroundColor=none;fontSize=12;fontColor=#ffffff;" parent="1" vertex="1">
          <mxGeometry x="736.75" y="159.5" width="96.5" height="29" as="geometry" />
        </mxCell>
        <mxCell id="397" style="edgeStyle=none;html=1;exitX=0;exitY=0.5;exitDx=0;exitDy=0;exitPerimeter=0;entryX=0;entryY=0.5;entryDx=0;entryDy=0;entryPerimeter=0;dashed=1;strokeColor=#82b366;strokeWidth=1;fontSize=10;fontColor=default;startArrow=classic;startFill=1;endArrow=none;endFill=0;fillColor=#d5e8d4;gradientColor=#97d077;" parent="1" source="183" target="182" edge="1">
          <mxGeometry relative="1" as="geometry" />
        </mxCell>
        <mxCell id="183" value="" style="verticalLabelPosition=bottom;html=1;verticalAlign=top;align=center;strokeColor=default;fillColor=#647687;shape=mxgraph.azure.server;labelBackgroundColor=none;fontSize=12;fontColor=#ffffff;" parent="1" vertex="1">
          <mxGeometry x="856.75" y="160" width="96.5" height="29" as="geometry" />
        </mxCell>
        <mxCell id="398" style="edgeStyle=none;html=1;exitX=0;exitY=0.5;exitDx=0;exitDy=0;exitPerimeter=0;entryX=0;entryY=0.5;entryDx=0;entryDy=0;entryPerimeter=0;dashed=1;strokeColor=#82b366;strokeWidth=1;fontSize=10;fontColor=default;startArrow=classic;startFill=1;endArrow=none;endFill=0;fillColor=#d5e8d4;gradientColor=#97d077;" parent="1" source="184" target="183" edge="1">
          <mxGeometry relative="1" as="geometry" />
        </mxCell>
        <mxCell id="184" value="" style="verticalLabelPosition=bottom;html=1;verticalAlign=top;align=center;strokeColor=default;fillColor=#647687;shape=mxgraph.azure.server;labelBackgroundColor=none;fontSize=12;fontColor=#ffffff;" parent="1" vertex="1">
          <mxGeometry x="976.75" y="160" width="96.5" height="29" as="geometry" />
        </mxCell>
        <mxCell id="400" style="edgeStyle=none;html=1;dashed=1;strokeColor=#b85450;strokeWidth=1;fontSize=10;fontColor=default;startArrow=classic;startFill=1;endArrow=none;endFill=0;fillColor=#f8cecc;gradientColor=#ea6b66;" parent="1" source="187" edge="1">
          <mxGeometry relative="1" as="geometry">
            <mxPoint x="610" y="118.5" as="targetPoint" />
          </mxGeometry>
        </mxCell>
        <mxCell id="187" value="" style="sketch=0;pointerEvents=1;shadow=0;dashed=0;html=1;strokeColor=#6F0000;labelPosition=center;verticalLabelPosition=bottom;verticalAlign=top;outlineConnect=0;align=center;shape=mxgraph.office.servers.server_generic;fillColor=#a20025;fontColor=#ffffff;" parent="1" vertex="1">
          <mxGeometry x="683.25" y="88.5" width="30" height="60" as="geometry" />
        </mxCell>
        <mxCell id="189" value="OpenStack&lt;br style=&quot;font-size: 16px;&quot;&gt;compute environment&lt;br&gt;" style="text;html=1;strokeColor=none;fillColor=none;align=center;verticalAlign=middle;whiteSpace=wrap;rounded=0;dashed=1;labelBackgroundColor=none;strokeWidth=2;fontSize=16;fontColor=default;" parent="1" vertex="1">
          <mxGeometry x="600" y="39" width="130" height="30" as="geometry" />
        </mxCell>
        <mxCell id="401" style="edgeStyle=none;html=1;dashed=1;strokeColor=#b85450;strokeWidth=1;fontSize=10;fontColor=default;startArrow=classic;startFill=1;endArrow=none;endFill=0;fillColor=#f8cecc;gradientColor=#ea6b66;" parent="1" source="190" edge="1">
          <mxGeometry relative="1" as="geometry">
            <mxPoint x="670" y="119" as="targetPoint" />
          </mxGeometry>
        </mxCell>
        <mxCell id="190" value="" style="sketch=0;pointerEvents=1;shadow=0;dashed=0;html=1;strokeColor=#6F0000;labelPosition=center;verticalLabelPosition=bottom;verticalAlign=top;outlineConnect=0;align=center;shape=mxgraph.office.servers.server_generic;fillColor=#a20025;fontColor=#ffffff;" parent="1" vertex="1">
          <mxGeometry x="736.75" y="89" width="30" height="60" as="geometry" />
        </mxCell>
        <mxCell id="402" style="edgeStyle=none;html=1;dashed=1;strokeColor=#b85450;strokeWidth=1;fontSize=10;fontColor=default;startArrow=classic;startFill=1;endArrow=none;endFill=0;fillColor=#f8cecc;gradientColor=#ea6b66;" parent="1" source="191" edge="1">
          <mxGeometry relative="1" as="geometry">
            <mxPoint x="720" y="119" as="targetPoint" />
          </mxGeometry>
        </mxCell>
        <mxCell id="191" value="" style="sketch=0;pointerEvents=1;shadow=0;dashed=0;html=1;strokeColor=#6F0000;labelPosition=center;verticalLabelPosition=bottom;verticalAlign=top;outlineConnect=0;align=center;shape=mxgraph.office.servers.server_generic;fillColor=#a20025;fontColor=#ffffff;" parent="1" vertex="1">
          <mxGeometry x="803.25" y="89" width="30" height="60" as="geometry" />
        </mxCell>
        <mxCell id="192" value="OpenStack&lt;br&gt;storage&lt;br&gt;environment" style="text;html=1;strokeColor=none;fillColor=none;align=center;verticalAlign=middle;whiteSpace=wrap;rounded=0;dashed=1;labelBackgroundColor=none;strokeWidth=2;fontSize=16;fontColor=default;" parent="1" vertex="1">
          <mxGeometry x="720" y="39" width="130" height="30" as="geometry" />
        </mxCell>
        <mxCell id="205" value="OpenStack&lt;br style=&quot;font-size: 16px;&quot;&gt;network&lt;br&gt;environment" style="text;html=1;strokeColor=none;fillColor=none;align=center;verticalAlign=middle;whiteSpace=wrap;rounded=0;dashed=1;labelBackgroundColor=none;strokeWidth=2;fontSize=16;fontColor=default;" parent="1" vertex="1">
          <mxGeometry x="840" y="39" width="130" height="30" as="geometry" />
        </mxCell>
        <mxCell id="405" style="edgeStyle=none;html=1;dashed=1;strokeColor=#b85450;strokeWidth=1;fontSize=10;fontColor=default;startArrow=classic;startFill=1;endArrow=none;endFill=0;fillColor=#f8cecc;gradientColor=#ea6b66;" parent="1" source="209" edge="1">
          <mxGeometry relative="1" as="geometry">
            <mxPoint x="910" y="119" as="targetPoint" />
          </mxGeometry>
        </mxCell>
        <mxCell id="209" value="" style="sketch=0;pointerEvents=1;shadow=0;dashed=0;html=1;strokeColor=#6F0000;labelPosition=center;verticalLabelPosition=bottom;verticalAlign=top;outlineConnect=0;align=center;shape=mxgraph.office.servers.server_generic;fillColor=#a20025;fontColor=#ffffff;" parent="1" vertex="1">
          <mxGeometry x="976.75" y="89" width="30" height="60" as="geometry" />
        </mxCell>
        <mxCell id="406" style="edgeStyle=none;html=1;dashed=1;strokeColor=#b85450;strokeWidth=1;fontSize=10;fontColor=default;startArrow=classic;startFill=1;endArrow=none;endFill=0;fillColor=#f8cecc;gradientColor=#ea6b66;" parent="1" source="210" edge="1">
          <mxGeometry relative="1" as="geometry">
            <mxPoint x="970" y="118.5" as="targetPoint" />
          </mxGeometry>
        </mxCell>
        <mxCell id="210" value="" style="sketch=0;pointerEvents=1;shadow=0;dashed=0;html=1;strokeColor=#6F0000;labelPosition=center;verticalLabelPosition=bottom;verticalAlign=top;outlineConnect=0;align=center;shape=mxgraph.office.servers.server_generic;fillColor=#a20025;fontColor=#ffffff;" parent="1" vertex="1">
          <mxGeometry x="1043.25" y="88.5" width="30" height="60" as="geometry" />
        </mxCell>
        <mxCell id="211" value="OpenStack&lt;br style=&quot;font-size: 16px;&quot;&gt;controll plane" style="text;html=1;strokeColor=none;fillColor=none;align=center;verticalAlign=middle;whiteSpace=wrap;rounded=0;dashed=1;labelBackgroundColor=none;strokeWidth=2;fontSize=16;fontColor=default;" parent="1" vertex="1">
          <mxGeometry x="960" y="49" width="130" height="30" as="geometry" />
        </mxCell>
        <mxCell id="403" style="edgeStyle=none;html=1;dashed=1;strokeColor=#b85450;strokeWidth=1;fontSize=10;fontColor=default;startArrow=classic;startFill=1;endArrow=none;endFill=0;fillColor=#f8cecc;gradientColor=#ea6b66;" parent="1" source="212" edge="1">
          <mxGeometry relative="1" as="geometry">
            <mxPoint x="800" y="119.5" as="targetPoint" />
          </mxGeometry>
        </mxCell>
        <mxCell id="212" value="" style="sketch=0;pointerEvents=1;shadow=0;dashed=0;html=1;strokeColor=#6F0000;labelPosition=center;verticalLabelPosition=bottom;verticalAlign=top;outlineConnect=0;align=center;shape=mxgraph.office.servers.server_generic;fillColor=#a20025;fontColor=#ffffff;" parent="1" vertex="1">
          <mxGeometry x="856.75" y="89.5" width="30" height="60" as="geometry" />
        </mxCell>
        <mxCell id="404" style="edgeStyle=none;html=1;dashed=1;strokeColor=#b85450;strokeWidth=1;fontSize=10;fontColor=default;startArrow=classic;startFill=1;endArrow=none;endFill=0;fillColor=#f8cecc;gradientColor=#ea6b66;" parent="1" source="213" edge="1">
          <mxGeometry relative="1" as="geometry">
            <mxPoint x="850" y="119" as="targetPoint" />
          </mxGeometry>
        </mxCell>
        <mxCell id="213" value="" style="sketch=0;pointerEvents=1;shadow=0;dashed=0;html=1;strokeColor=#6F0000;labelPosition=center;verticalLabelPosition=bottom;verticalAlign=top;outlineConnect=0;align=center;shape=mxgraph.office.servers.server_generic;fillColor=#a20025;fontColor=#ffffff;" parent="1" vertex="1">
          <mxGeometry x="923.25" y="89" width="30" height="60" as="geometry" />
        </mxCell>
        <mxCell id="215" value="PC" style="fontColor=default;verticalAlign=top;verticalLabelPosition=bottom;labelPosition=center;align=center;html=1;outlineConnect=0;fillColor=#647687;strokeColor=#314354;gradientDirection=north;strokeWidth=2;shape=mxgraph.networks.pc;fontSize=12;" parent="1" vertex="1">
          <mxGeometry x="560" y="730" width="80" height="50" as="geometry" />
        </mxCell>
        <mxCell id="216" value="PC" style="fontColor=default;verticalAlign=top;verticalLabelPosition=bottom;labelPosition=center;align=center;html=1;outlineConnect=0;fillColor=#647687;strokeColor=#314354;gradientDirection=north;strokeWidth=2;shape=mxgraph.networks.pc;fontSize=12;" parent="1" vertex="1">
          <mxGeometry x="850" y="735" width="50" height="41" as="geometry" />
        </mxCell>
        <mxCell id="219" value="&lt;font style=&quot;font-size: 12px;&quot;&gt;MEM&lt;/font&gt;" style="sketch=0;pointerEvents=1;shadow=0;dashed=0;html=1;strokeColor=default;fillColor=#005F4B;labelPosition=center;verticalLabelPosition=bottom;verticalAlign=top;align=center;outlineConnect=0;shape=mxgraph.veeam2.ram;fontColor=default;fontSize=12;" parent="1" vertex="1">
          <mxGeometry x="600" y="671" width="40" height="19" as="geometry" />
        </mxCell>
        <mxCell id="220" value="CPU" style="pointerEvents=1;shadow=0;dashed=0;html=1;strokeColor=default;fillColor=#005F4B;labelPosition=center;verticalLabelPosition=bottom;verticalAlign=top;align=center;outlineConnect=0;shape=mxgraph.veeam.cpu;labelBackgroundColor=none;fontSize=12;fontColor=default;" parent="1" vertex="1">
          <mxGeometry x="560" y="660" width="30" height="30" as="geometry" />
        </mxCell>
        <mxCell id="221" value="&lt;span style=&quot;font-size: 12px;&quot;&gt;GPU&lt;/span&gt;" style="sketch=0;pointerEvents=1;shadow=0;dashed=0;html=1;strokeColor=default;fillColor=#005F4B;labelPosition=center;verticalLabelPosition=bottom;verticalAlign=top;align=center;outlineConnect=0;shape=mxgraph.veeam2.cpu;fontColor=default;fontSize=12;" parent="1" vertex="1">
          <mxGeometry x="833.25" y="660" width="30" height="30" as="geometry" />
        </mxCell>
        <mxCell id="222" value="Laptop" style="fontColor=default;verticalAlign=top;verticalLabelPosition=bottom;labelPosition=center;align=center;html=1;outlineConnect=0;fillColor=#647687;strokeColor=#314354;gradientDirection=north;strokeWidth=2;shape=mxgraph.networks.laptop;fontSize=12;" parent="1" vertex="1">
          <mxGeometry x="680.88" y="730" width="79.12" height="50" as="geometry" />
        </mxCell>
        <mxCell id="223" value="&lt;font style=&quot;font-size: 12px;&quot;&gt;MEM&lt;/font&gt;" style="sketch=0;pointerEvents=1;shadow=0;dashed=0;html=1;strokeColor=default;fillColor=#005F4B;labelPosition=center;verticalLabelPosition=bottom;verticalAlign=top;align=center;outlineConnect=0;shape=mxgraph.veeam2.ram;fontColor=default;fontSize=12;" parent="1" vertex="1">
          <mxGeometry x="720.88" y="671" width="40" height="19" as="geometry" />
        </mxCell>
        <mxCell id="224" value="CPU" style="pointerEvents=1;shadow=0;dashed=0;html=1;strokeColor=default;fillColor=#005F4B;labelPosition=center;verticalLabelPosition=bottom;verticalAlign=top;align=center;outlineConnect=0;shape=mxgraph.veeam.cpu;labelBackgroundColor=none;fontSize=12;fontColor=default;" parent="1" vertex="1">
          <mxGeometry x="680.88" y="660" width="30" height="30" as="geometry" />
        </mxCell>
        <mxCell id="231" value="Home server" style="sketch=0;pointerEvents=1;shadow=0;dashed=0;html=1;strokeColor=#314354;labelPosition=center;verticalLabelPosition=bottom;verticalAlign=top;outlineConnect=0;align=center;shape=mxgraph.office.servers.server_generic;fillColor=#647687;fontColor=default;fontSize=12;" parent="1" vertex="1">
          <mxGeometry x="960" y="720" width="32.5" height="55" as="geometry" />
        </mxCell>
        <mxCell id="232" value="&lt;font style=&quot;font-size: 12px;&quot;&gt;MEM&lt;/font&gt;" style="sketch=0;pointerEvents=1;shadow=0;dashed=0;html=1;strokeColor=default;fillColor=#005F4B;labelPosition=center;verticalLabelPosition=bottom;verticalAlign=top;align=center;outlineConnect=0;shape=mxgraph.veeam2.ram;fontColor=default;fontSize=12;" parent="1" vertex="1">
          <mxGeometry x="974.63" y="671" width="40" height="19" as="geometry" />
        </mxCell>
        <mxCell id="233" value="CPU" style="pointerEvents=1;shadow=0;dashed=0;html=1;strokeColor=default;fillColor=#005F4B;labelPosition=center;verticalLabelPosition=bottom;verticalAlign=top;align=center;outlineConnect=0;shape=mxgraph.veeam.cpu;labelBackgroundColor=none;fontSize=12;fontColor=default;" parent="1" vertex="1">
          <mxGeometry x="937.88" y="660" width="30" height="30" as="geometry" />
        </mxCell>
        <mxCell id="234" value="Home server" style="sketch=0;pointerEvents=1;shadow=0;dashed=0;html=1;strokeColor=#314354;labelPosition=center;verticalLabelPosition=bottom;verticalAlign=top;outlineConnect=0;align=center;shape=mxgraph.office.servers.server_generic;fillColor=#647687;fontColor=default;fontSize=12;" parent="1" vertex="1">
          <mxGeometry x="1073.25" y="720" width="32.5" height="55" as="geometry" />
        </mxCell>
        <mxCell id="235" value="&lt;font style=&quot;font-size: 12px;&quot;&gt;SSD/HDD&lt;/font&gt;" style="sketch=0;pointerEvents=1;shadow=0;dashed=0;html=1;strokeColor=none;fillColor=#005F4B;labelPosition=center;verticalLabelPosition=bottom;verticalAlign=top;align=center;outlineConnect=0;shape=mxgraph.veeam2.hdd;fontSize=12;fontColor=default;" parent="1" vertex="1">
          <mxGeometry x="1075.5" y="655" width="28.000000000000004" height="35" as="geometry" />
        </mxCell>
        <mxCell id="236" value="Laptop" style="fontColor=default;verticalAlign=top;verticalLabelPosition=bottom;labelPosition=center;align=center;html=1;outlineConnect=0;fillColor=#647687;strokeColor=#314354;gradientDirection=north;strokeWidth=2;shape=mxgraph.networks.laptop;fontSize=12;" parent="1" vertex="1">
          <mxGeometry x="85" y="515" width="60" height="40" as="geometry" />
        </mxCell>
        <mxCell id="237" value="" style="endArrow=none;dashed=1;html=1;strokeWidth=2;fontSize=16;fontColor=default;" parent="1" edge="1">
          <mxGeometry width="50" height="50" relative="1" as="geometry">
            <mxPoint x="550" y="650" as="sourcePoint" />
            <mxPoint x="1130" y="650" as="targetPoint" />
          </mxGeometry>
        </mxCell>
        <mxCell id="386" style="edgeStyle=none;html=1;entryX=1;entryY=0.73;entryDx=0;entryDy=0;entryPerimeter=0;dashed=1;strokeColor=#82b366;strokeWidth=1;fontSize=10;fontColor=default;endArrow=none;endFill=0;startArrow=classic;startFill=1;fillColor=#d5e8d4;gradientColor=#97d077;" parent="1" source="238" target="162" edge="1">
          <mxGeometry relative="1" as="geometry" />
        </mxCell>
        <mxCell id="238" value="KVM&lt;br&gt;compute node" style="sketch=0;pointerEvents=1;shadow=0;dashed=0;html=1;strokeColor=#B20000;labelPosition=center;verticalLabelPosition=bottom;verticalAlign=top;outlineConnect=0;align=center;shape=mxgraph.office.servers.server_generic;fillColor=#e51400;fontColor=default;" parent="1" vertex="1">
          <mxGeometry x="580" y="569.5" width="40" height="40" as="geometry" />
        </mxCell>
        <mxCell id="239" value="GPU&lt;br&gt;compute node" style="sketch=0;pointerEvents=1;shadow=0;dashed=0;html=1;strokeColor=#C73500;labelPosition=center;verticalLabelPosition=bottom;verticalAlign=top;outlineConnect=0;align=center;shape=mxgraph.office.servers.server_generic;fillColor=#fa6800;fontColor=default;" parent="1" vertex="1">
          <mxGeometry x="828.25" y="569.5" width="40" height="40" as="geometry" />
        </mxCell>
        <mxCell id="387" style="edgeStyle=none;html=1;dashed=1;strokeColor=#82b366;strokeWidth=1;fontSize=10;fontColor=default;startArrow=classic;startFill=1;endArrow=none;endFill=0;fillColor=#d5e8d4;gradientColor=#97d077;" parent="1" source="240" edge="1">
          <mxGeometry relative="1" as="geometry">
            <mxPoint x="570" y="589.5" as="targetPoint" />
          </mxGeometry>
        </mxCell>
        <mxCell id="240" value="Hyper-type2&lt;br&gt;compute node" style="sketch=0;pointerEvents=1;shadow=0;dashed=0;html=1;strokeColor=#A50040;labelPosition=center;verticalLabelPosition=bottom;verticalAlign=top;outlineConnect=0;align=center;shape=mxgraph.office.servers.server_generic;fillColor=#d80073;fontColor=default;" parent="1" vertex="1">
          <mxGeometry x="700.44" y="569.5" width="40" height="40" as="geometry" />
        </mxCell>
        <mxCell id="389" style="edgeStyle=none;html=1;dashed=1;strokeColor=#82b366;strokeWidth=1;fontSize=10;fontColor=default;startArrow=classic;startFill=1;endArrow=none;endFill=0;fillColor=#d5e8d4;gradientColor=#97d077;" parent="1" source="241" edge="1">
          <mxGeometry relative="1" as="geometry">
            <mxPoint x="820" y="590" as="targetPoint" />
          </mxGeometry>
        </mxCell>
        <mxCell id="241" value="KVM&lt;br&gt;compute node" style="sketch=0;pointerEvents=1;shadow=0;dashed=0;html=1;strokeColor=#B20000;labelPosition=center;verticalLabelPosition=bottom;verticalAlign=top;outlineConnect=0;align=center;shape=mxgraph.office.servers.server_generic;fillColor=#e51400;fontColor=default;" parent="1" vertex="1">
          <mxGeometry x="956.25" y="569.5" width="40" height="40" as="geometry" />
        </mxCell>
        <mxCell id="390" style="edgeStyle=none;html=1;dashed=1;strokeColor=#82b366;strokeWidth=1;fontSize=10;fontColor=default;startArrow=classic;startFill=1;endArrow=none;endFill=0;fillColor=#d5e8d4;gradientColor=#97d077;" parent="1" source="242" edge="1">
          <mxGeometry relative="1" as="geometry">
            <mxPoint x="950" y="590" as="targetPoint" />
          </mxGeometry>
        </mxCell>
        <mxCell id="242" value="Storage&lt;br&gt;node" style="sketch=0;pointerEvents=1;shadow=0;dashed=0;html=1;strokeColor=#BD7000;labelPosition=center;verticalLabelPosition=bottom;verticalAlign=top;outlineConnect=0;align=center;shape=mxgraph.office.servers.server_generic;fillColor=#f0a30a;fontColor=default;" parent="1" vertex="1">
          <mxGeometry x="1069.5" y="569.5" width="40" height="40" as="geometry" />
        </mxCell>
        <mxCell id="381" style="edgeStyle=none;html=1;exitX=0.5;exitY=0;exitDx=0;exitDy=0;entryX=1;entryY=0.641;entryDx=0;entryDy=0;entryPerimeter=0;dashed=1;strokeWidth=1;fontSize=10;fontColor=default;strokeColor=#6C8EBF;" parent="1" source="243" target="162" edge="1">
          <mxGeometry relative="1" as="geometry">
            <Array as="points">
              <mxPoint x="600" y="520" />
            </Array>
          </mxGeometry>
        </mxCell>
        <mxCell id="243" value="&lt;span&gt;NG&lt;/span&gt;" style="whiteSpace=wrap;html=1;aspect=fixed;fillColor=none;gradientColor=#7ea6e0;strokeColor=#6c8ebf;strokeWidth=2;fontColor=default;fontStyle=0" parent="1" vertex="1">
          <mxGeometry x="590" y="549.5" width="20" height="20" as="geometry" />
        </mxCell>
        <mxCell id="383" style="edgeStyle=none;html=1;exitX=0.5;exitY=0;exitDx=0;exitDy=0;dashed=1;strokeWidth=1;fontSize=10;fontColor=default;strokeColor=#6C8EBF;" parent="1" source="244" edge="1">
          <mxGeometry relative="1" as="geometry">
            <mxPoint x="710" y="520" as="targetPoint" />
            <Array as="points">
              <mxPoint x="848" y="520" />
            </Array>
          </mxGeometry>
        </mxCell>
        <mxCell id="244" value="&lt;span&gt;NG&lt;/span&gt;" style="whiteSpace=wrap;html=1;aspect=fixed;fillColor=none;gradientColor=#7ea6e0;strokeColor=#6c8ebf;strokeWidth=2;fontColor=default;fontStyle=0" parent="1" vertex="1">
          <mxGeometry x="838.25" y="549.5" width="20" height="20" as="geometry" />
        </mxCell>
        <mxCell id="382" style="edgeStyle=none;html=1;exitX=0.5;exitY=0;exitDx=0;exitDy=0;dashed=1;strokeWidth=1;fontSize=10;fontColor=default;strokeColor=#6C8EBF;" parent="1" source="245" edge="1">
          <mxGeometry relative="1" as="geometry">
            <mxPoint x="590" y="520" as="targetPoint" />
            <Array as="points">
              <mxPoint x="720" y="520" />
            </Array>
          </mxGeometry>
        </mxCell>
        <mxCell id="245" value="&lt;span&gt;NG&lt;/span&gt;" style="whiteSpace=wrap;html=1;aspect=fixed;fillColor=none;gradientColor=#7ea6e0;strokeColor=#6c8ebf;strokeWidth=2;fontColor=default;fontStyle=0" parent="1" vertex="1">
          <mxGeometry x="710.44" y="550" width="20" height="20" as="geometry" />
        </mxCell>
        <mxCell id="384" style="edgeStyle=none;html=1;exitX=0.5;exitY=0;exitDx=0;exitDy=0;dashed=1;strokeWidth=1;fontSize=10;fontColor=default;strokeColor=#6C8EBF;" parent="1" source="246" edge="1">
          <mxGeometry relative="1" as="geometry">
            <mxPoint x="840" y="520" as="targetPoint" />
            <Array as="points">
              <mxPoint x="976" y="520" />
            </Array>
          </mxGeometry>
        </mxCell>
        <mxCell id="246" value="&lt;span&gt;NG&lt;/span&gt;" style="whiteSpace=wrap;html=1;aspect=fixed;fillColor=none;gradientColor=#7ea6e0;strokeColor=#6c8ebf;strokeWidth=2;fontColor=default;fontStyle=0" parent="1" vertex="1">
          <mxGeometry x="966.25" y="549.5" width="20" height="20" as="geometry" />
        </mxCell>
        <mxCell id="385" style="edgeStyle=none;html=1;exitX=0.5;exitY=0;exitDx=0;exitDy=0;dashed=1;strokeWidth=1;fontSize=10;fontColor=default;strokeColor=#6C8EBF;" parent="1" source="247" edge="1">
          <mxGeometry relative="1" as="geometry">
            <mxPoint x="970" y="520" as="targetPoint" />
            <Array as="points">
              <mxPoint x="1090" y="520" />
            </Array>
          </mxGeometry>
        </mxCell>
        <mxCell id="247" value="&lt;span&gt;NG&lt;/span&gt;" style="whiteSpace=wrap;html=1;aspect=fixed;fillColor=none;gradientColor=#7ea6e0;strokeColor=#6c8ebf;strokeWidth=2;fontColor=default;fontStyle=0" parent="1" vertex="1">
          <mxGeometry x="1079.5" y="550" width="20" height="20" as="geometry" />
        </mxCell>
        <mxCell id="391" style="edgeStyle=none;html=1;exitX=0.5;exitY=1;exitDx=0;exitDy=0;entryX=0.967;entryY=0.282;entryDx=0;entryDy=0;entryPerimeter=0;dashed=1;strokeColor=#6C8EBF;strokeWidth=1;fontSize=10;fontColor=default;startArrow=none;startFill=0;endArrow=classic;endFill=1;" parent="1" source="248" target="162" edge="1">
          <mxGeometry relative="1" as="geometry">
            <Array as="points">
              <mxPoint x="665" y="240" />
            </Array>
          </mxGeometry>
        </mxCell>
        <mxCell id="248" value="&lt;span&gt;NG&lt;/span&gt;" style="whiteSpace=wrap;html=1;aspect=fixed;fillColor=none;gradientColor=#7ea6e0;strokeColor=#6c8ebf;strokeWidth=2;fontColor=default;fontStyle=0" parent="1" vertex="1">
          <mxGeometry x="655" y="188.5" width="20" height="20" as="geometry" />
        </mxCell>
        <mxCell id="392" style="edgeStyle=none;html=1;exitX=0.5;exitY=1;exitDx=0;exitDy=0;dashed=1;strokeColor=#6C8EBF;strokeWidth=1;fontSize=10;fontColor=default;startArrow=none;startFill=0;endArrow=classic;endFill=1;" parent="1" source="249" edge="1">
          <mxGeometry relative="1" as="geometry">
            <mxPoint x="650" y="240" as="targetPoint" />
            <Array as="points">
              <mxPoint x="785" y="240" />
            </Array>
          </mxGeometry>
        </mxCell>
        <mxCell id="249" value="&lt;span&gt;NG&lt;/span&gt;" style="whiteSpace=wrap;html=1;aspect=fixed;fillColor=none;gradientColor=#7ea6e0;strokeColor=#6c8ebf;strokeWidth=2;fontColor=default;fontStyle=0" parent="1" vertex="1">
          <mxGeometry x="775" y="188.5" width="20" height="20" as="geometry" />
        </mxCell>
        <mxCell id="393" style="edgeStyle=none;html=1;exitX=0.5;exitY=1;exitDx=0;exitDy=0;dashed=1;strokeColor=#6C8EBF;strokeWidth=1;fontSize=10;fontColor=default;startArrow=none;startFill=0;endArrow=classic;endFill=1;" parent="1" source="250" edge="1">
          <mxGeometry relative="1" as="geometry">
            <mxPoint x="770" y="240" as="targetPoint" />
            <Array as="points">
              <mxPoint x="905" y="240" />
            </Array>
          </mxGeometry>
        </mxCell>
        <mxCell id="250" value="&lt;span&gt;NG&lt;/span&gt;" style="whiteSpace=wrap;html=1;aspect=fixed;fillColor=none;gradientColor=#7ea6e0;strokeColor=#6c8ebf;strokeWidth=2;fontColor=default;fontStyle=0" parent="1" vertex="1">
          <mxGeometry x="895" y="189" width="20" height="20" as="geometry" />
        </mxCell>
        <mxCell id="394" style="edgeStyle=none;html=1;exitX=0.5;exitY=1;exitDx=0;exitDy=0;dashed=1;strokeColor=#6C8EBF;strokeWidth=1;fontSize=10;fontColor=default;startArrow=none;startFill=0;endArrow=classic;endFill=1;" parent="1" source="251" edge="1">
          <mxGeometry relative="1" as="geometry">
            <mxPoint x="890" y="240" as="targetPoint" />
            <Array as="points">
              <mxPoint x="1025" y="240" />
            </Array>
          </mxGeometry>
        </mxCell>
        <mxCell id="251" value="&lt;span&gt;NG&lt;/span&gt;" style="whiteSpace=wrap;html=1;aspect=fixed;fillColor=none;gradientColor=#7ea6e0;strokeColor=#6c8ebf;strokeWidth=2;fontColor=default;fontStyle=0" parent="1" vertex="1">
          <mxGeometry x="1015" y="189" width="20" height="20" as="geometry" />
        </mxCell>
        <mxCell id="379" value="&lt;font color=&quot;#2d7600&quot;&gt;Service Environment&lt;/font&gt;" style="text;html=1;strokeColor=none;fillColor=none;align=center;verticalAlign=middle;whiteSpace=wrap;rounded=0;labelBackgroundColor=none;strokeWidth=2;fontSize=13;fontColor=default;" parent="1" vertex="1">
          <mxGeometry x="561.0899999999999" y="254.99999999999997" width="160" height="30" as="geometry" />
        </mxCell>
        <mxCell id="380" value="&lt;font color=&quot;#ffffff&quot; style=&quot;font-size: 9px;&quot;&gt;host-aggregate&lt;/font&gt;" style="text;html=1;strokeColor=none;fillColor=none;align=center;verticalAlign=middle;whiteSpace=wrap;rounded=0;dashed=1;strokeWidth=1;fontSize=6;fontColor=default;" parent="1" vertex="1">
          <mxGeometry x="585.81" y="285" width="87.5" height="18" as="geometry" />
        </mxCell>
        <mxCell id="388" style="edgeStyle=none;html=1;dashed=1;strokeColor=#82b366;strokeWidth=1;fontSize=10;fontColor=default;startArrow=classic;startFill=1;endArrow=none;endFill=0;fillColor=#d5e8d4;gradientColor=#97d077;" parent="1" source="239" edge="1">
          <mxGeometry relative="1" as="geometry">
            <mxPoint x="700" y="589.5" as="targetPoint" />
          </mxGeometry>
        </mxCell>
        <mxCell id="409" value="" style="rounded=0;whiteSpace=wrap;html=1;labelBackgroundColor=none;strokeColor=#B20000;strokeWidth=1;fontSize=10;fontColor=#ffffff;fillColor=#e51400;" parent="1" vertex="1">
          <mxGeometry x="639.56" y="300" width="20" height="20" as="geometry" />
        </mxCell>
        <mxCell id="410" value="" style="rounded=0;whiteSpace=wrap;html=1;labelBackgroundColor=none;strokeColor=#B20000;strokeWidth=1;fontSize=10;fontColor=#ffffff;fillColor=#e51400;" parent="1" vertex="1">
          <mxGeometry x="599.56" y="320" width="20" height="20" as="geometry" />
        </mxCell>
        <mxCell id="411" value="" style="rounded=0;whiteSpace=wrap;html=1;labelBackgroundColor=none;strokeColor=#B20000;strokeWidth=1;fontSize=10;fontColor=#ffffff;fillColor=#e51400;" parent="1" vertex="1">
          <mxGeometry x="619.56" y="320" width="20" height="20" as="geometry" />
        </mxCell>
        <mxCell id="413" value="" style="rounded=0;whiteSpace=wrap;html=1;labelBackgroundColor=none;strokeColor=#B20000;strokeWidth=1;fontSize=10;fontColor=#ffffff;fillColor=#e51400;" parent="1" vertex="1">
          <mxGeometry x="639.56" y="320" width="20" height="20" as="geometry" />
        </mxCell>
        <mxCell id="442" style="edgeStyle=none;html=1;exitX=0;exitY=0;exitDx=0;exitDy=0;dashed=1;strokeColor=#b85450;strokeWidth=1;fontSize=9;fontColor=default;startArrow=classic;startFill=1;endArrow=none;endFill=0;fillColor=#f8cecc;gradientColor=#ea6b66;" parent="1" source="414" edge="1">
          <mxGeometry relative="1" as="geometry">
            <mxPoint x="520" y="380" as="targetPoint" />
          </mxGeometry>
        </mxCell>
        <mxCell id="414" value="" style="rounded=0;whiteSpace=wrap;html=1;labelBackgroundColor=none;strokeColor=#B20000;strokeWidth=1;fontSize=10;fontColor=#ffffff;fillColor=#e51400;" parent="1" vertex="1">
          <mxGeometry x="599.56" y="340" width="20" height="20" as="geometry" />
        </mxCell>
        <mxCell id="415" value="" style="rounded=0;whiteSpace=wrap;html=1;labelBackgroundColor=none;strokeColor=#B20000;strokeWidth=1;fontSize=10;fontColor=#ffffff;fillColor=#e51400;" parent="1" vertex="1">
          <mxGeometry x="619.56" y="340" width="20" height="20" as="geometry" />
        </mxCell>
        <mxCell id="416" value="" style="rounded=0;whiteSpace=wrap;html=1;labelBackgroundColor=none;strokeColor=#B20000;strokeWidth=1;fontSize=10;fontColor=#ffffff;fillColor=#e51400;" parent="1" vertex="1">
          <mxGeometry x="639.56" y="340" width="20" height="20" as="geometry" />
        </mxCell>
        <mxCell id="417" value="" style="rounded=0;whiteSpace=wrap;html=1;labelBackgroundColor=none;strokeColor=#B20000;strokeWidth=1;fontSize=10;fontColor=#ffffff;fillColor=#e51400;" parent="1" vertex="1">
          <mxGeometry x="599.56" y="360" width="20" height="20" as="geometry" />
        </mxCell>
        <mxCell id="418" value="" style="rounded=0;whiteSpace=wrap;html=1;labelBackgroundColor=none;strokeColor=#B20000;strokeWidth=1;fontSize=10;fontColor=#ffffff;fillColor=#e51400;" parent="1" vertex="1">
          <mxGeometry x="619.56" y="360" width="20" height="20" as="geometry" />
        </mxCell>
        <mxCell id="419" value="" style="rounded=0;whiteSpace=wrap;html=1;labelBackgroundColor=none;strokeColor=#B20000;strokeWidth=1;fontSize=10;fontColor=#ffffff;fillColor=#e51400;" parent="1" vertex="1">
          <mxGeometry x="639.56" y="360" width="20" height="20" as="geometry" />
        </mxCell>
        <mxCell id="420" value="" style="rounded=0;whiteSpace=wrap;html=1;labelBackgroundColor=none;strokeColor=#B20000;strokeWidth=1;fontSize=10;fontColor=#ffffff;fillColor=#e51400;" parent="1" vertex="1">
          <mxGeometry x="599.56" y="380" width="20" height="20" as="geometry" />
        </mxCell>
        <mxCell id="421" value="" style="rounded=0;whiteSpace=wrap;html=1;labelBackgroundColor=none;strokeColor=#B20000;strokeWidth=1;fontSize=10;fontColor=#ffffff;fillColor=#e51400;" parent="1" vertex="1">
          <mxGeometry x="619.56" y="380" width="20" height="20" as="geometry" />
        </mxCell>
        <mxCell id="422" value="" style="rounded=0;whiteSpace=wrap;html=1;labelBackgroundColor=none;strokeColor=#B20000;strokeWidth=1;fontSize=10;fontColor=#ffffff;fillColor=#e51400;" parent="1" vertex="1">
          <mxGeometry x="639.56" y="380" width="20" height="20" as="geometry" />
        </mxCell>
        <mxCell id="441" style="edgeStyle=none;html=1;exitX=0;exitY=1;exitDx=0;exitDy=0;dashed=1;strokeColor=#b85450;strokeWidth=1;fontSize=9;fontColor=default;startArrow=classic;startFill=1;endArrow=none;endFill=0;fillColor=#f8cecc;gradientColor=#ea6b66;" parent="1" source="423" edge="1">
          <mxGeometry relative="1" as="geometry">
            <mxPoint x="520" y="380" as="targetPoint" />
          </mxGeometry>
        </mxCell>
        <mxCell id="423" value="" style="rounded=0;whiteSpace=wrap;html=1;labelBackgroundColor=none;strokeColor=#B20000;strokeWidth=1;fontSize=10;fontColor=#ffffff;fillColor=#e51400;" parent="1" vertex="1">
          <mxGeometry x="599.56" y="400" width="20" height="20" as="geometry" />
        </mxCell>
        <mxCell id="424" value="" style="rounded=0;whiteSpace=wrap;html=1;labelBackgroundColor=none;strokeColor=#B20000;strokeWidth=1;fontSize=10;fontColor=#ffffff;fillColor=#e51400;" parent="1" vertex="1">
          <mxGeometry x="619.56" y="400" width="20" height="20" as="geometry" />
        </mxCell>
        <mxCell id="425" value="" style="rounded=0;whiteSpace=wrap;html=1;labelBackgroundColor=none;strokeColor=#B20000;strokeWidth=1;fontSize=10;fontColor=#ffffff;fillColor=#e51400;" parent="1" vertex="1">
          <mxGeometry x="639.56" y="400" width="20" height="20" as="geometry" />
        </mxCell>
        <mxCell id="426" value="" style="rounded=0;whiteSpace=wrap;html=1;labelBackgroundColor=none;strokeColor=#B20000;strokeWidth=1;fontSize=10;fontColor=#ffffff;fillColor=#e51400;" parent="1" vertex="1">
          <mxGeometry x="599.56" y="420" width="20" height="20" as="geometry" />
        </mxCell>
        <mxCell id="427" value="" style="rounded=0;whiteSpace=wrap;html=1;labelBackgroundColor=none;strokeColor=#B20000;strokeWidth=1;fontSize=10;fontColor=#ffffff;fillColor=#e51400;" parent="1" vertex="1">
          <mxGeometry x="619.56" y="420" width="20" height="20" as="geometry" />
        </mxCell>
        <mxCell id="428" value="" style="rounded=0;whiteSpace=wrap;html=1;labelBackgroundColor=none;strokeColor=#B20000;strokeWidth=1;fontSize=10;fontColor=#ffffff;fillColor=#e51400;" parent="1" vertex="1">
          <mxGeometry x="639.56" y="420" width="20" height="20" as="geometry" />
        </mxCell>
        <mxCell id="440" style="edgeStyle=none;html=1;exitX=0;exitY=0.5;exitDx=0;exitDy=0;entryX=0.992;entryY=0.462;entryDx=0;entryDy=0;entryPerimeter=0;dashed=1;strokeColor=#b85450;strokeWidth=1;fontSize=9;fontColor=default;startArrow=classic;startFill=1;endArrow=none;endFill=0;fillColor=#f8cecc;gradientColor=#ea6b66;" parent="1" source="429" target="162" edge="1">
          <mxGeometry relative="1" as="geometry" />
        </mxCell>
        <mxCell id="429" value="" style="rounded=0;whiteSpace=wrap;html=1;labelBackgroundColor=none;strokeColor=#BD7000;strokeWidth=1;fontSize=10;fontColor=#000000;fillColor=#f0a30a;" parent="1" vertex="1">
          <mxGeometry x="599.56" y="440" width="20" height="20" as="geometry" />
        </mxCell>
        <mxCell id="430" value="" style="rounded=0;whiteSpace=wrap;html=1;labelBackgroundColor=none;strokeColor=#BD7000;strokeWidth=1;fontSize=10;fontColor=#000000;fillColor=#f0a30a;" parent="1" vertex="1">
          <mxGeometry x="619.56" y="440" width="20" height="20" as="geometry" />
        </mxCell>
        <mxCell id="431" value="" style="rounded=0;whiteSpace=wrap;html=1;labelBackgroundColor=none;strokeColor=#BD7000;strokeWidth=1;fontSize=10;fontColor=#000000;fillColor=#f0a30a;" parent="1" vertex="1">
          <mxGeometry x="639.56" y="440" width="20" height="20" as="geometry" />
        </mxCell>
        <mxCell id="439" style="edgeStyle=none;html=1;exitX=0;exitY=0.5;exitDx=0;exitDy=0;dashed=1;strokeColor=#b85450;strokeWidth=1;fontSize=9;fontColor=default;startArrow=classic;startFill=1;endArrow=none;endFill=0;fillColor=#f8cecc;gradientColor=#ea6b66;" parent="1" source="407" edge="1">
          <mxGeometry relative="1" as="geometry">
            <mxPoint x="520" y="380" as="targetPoint" />
          </mxGeometry>
        </mxCell>
        <mxCell id="407" value="" style="rounded=0;whiteSpace=wrap;html=1;labelBackgroundColor=none;strokeColor=#6F0000;strokeWidth=1;fontSize=10;fontColor=#ffffff;fillColor=#a20025;" parent="1" vertex="1">
          <mxGeometry x="599.56" y="300" width="20" height="20" as="geometry" />
        </mxCell>
        <mxCell id="408" value="" style="rounded=0;whiteSpace=wrap;html=1;labelBackgroundColor=none;strokeColor=#6F0000;strokeWidth=1;fontSize=10;fontColor=#ffffff;fillColor=#a20025;" parent="1" vertex="1">
          <mxGeometry x="619.56" y="300" width="20" height="20" as="geometry" />
        </mxCell>
        <mxCell id="468" value="Network and security structure" style="rounded=0;whiteSpace=wrap;html=1;dashed=1;labelBackgroundColor=none;strokeColor=default;strokeWidth=1;fontSize=9;fontColor=default;fillColor=none;rotation=-90;dashPattern=1 4;" parent="1" vertex="1">
          <mxGeometry x="721.0899999999999" y="369.43" width="178.81" height="22.18" as="geometry" />
        </mxCell>
        <mxCell id="469" value="" style="rounded=0;whiteSpace=wrap;html=1;labelBackgroundColor=none;strokeColor=default;strokeWidth=1;fontSize=9;fontColor=default;fillColor=none;" parent="1" vertex="1">
          <mxGeometry x="829.56" y="290.61" width="170" height="179.39" as="geometry" />
        </mxCell>
        <mxCell id="470" value="&lt;font style=&quot;font-size: 10px;&quot;&gt;Distributet VM&lt;/font&gt;" style="rounded=0;whiteSpace=wrap;html=1;strokeColor=#d6b656;strokeWidth=2;fillColor=none;rotation=0;gradientColor=#ffd966;fontColor=default;" parent="1" vertex="1">
          <mxGeometry x="839.56" y="440" width="70" height="20" as="geometry" />
        </mxCell>
        <mxCell id="491" style="edgeStyle=none;html=1;exitX=1;exitY=0.5;exitDx=0;exitDy=0;entryX=0;entryY=1;entryDx=0;entryDy=0;dashed=1;strokeColor=default;strokeWidth=1;fontSize=8;fontColor=default;startArrow=classic;startFill=1;endArrow=classic;endFill=1;" parent="1" source="471" target="456" edge="1">
          <mxGeometry relative="1" as="geometry" />
        </mxCell>
        <mxCell id="471" value="&lt;font style=&quot;font-size: 10px;&quot;&gt;Distributet VM&lt;/font&gt;" style="rounded=0;whiteSpace=wrap;html=1;strokeColor=#d6b656;strokeWidth=2;fillColor=none;rotation=0;gradientColor=#ffd966;fontColor=default;" parent="1" vertex="1">
          <mxGeometry x="919.56" y="440" width="70" height="20" as="geometry" />
        </mxCell>
        <mxCell id="472" value="Blochain Node&lt;br&gt;(e.g. colator)" style="rounded=0;whiteSpace=wrap;html=1;labelBackgroundColor=none;strokeColor=#2D7600;strokeWidth=3;fontSize=9;fillColor=none;fontColor=default;" parent="1" vertex="1">
          <mxGeometry x="840" y="400" width="70" height="30" as="geometry" />
        </mxCell>
        <mxCell id="474" value="&lt;span style=&quot;font-size: 8px;&quot;&gt;2to3 Service Node&lt;/span&gt;&lt;br style=&quot;font-size: 8px;&quot;&gt;&lt;span style=&quot;font-size: 8px;&quot;&gt;(e.g. k8s worker)&lt;/span&gt;" style="rounded=0;whiteSpace=wrap;html=1;labelBackgroundColor=none;strokeColor=#2D7600;strokeWidth=3;fontSize=9;fillColor=none;fontColor=default;" parent="1" vertex="1">
          <mxGeometry x="920" y="399.5" width="70" height="30.5" as="geometry" />
        </mxCell>
        <mxCell id="479" value="&lt;font style=&quot;font-size: 10px;&quot;&gt;Distributet VM&lt;/font&gt;" style="rounded=0;whiteSpace=wrap;html=1;strokeColor=#d6b656;strokeWidth=2;fillColor=none;rotation=0;gradientColor=#ffd966;fontColor=default;" parent="1" vertex="1">
          <mxGeometry x="840" y="339.78" width="70" height="19.43" as="geometry" />
        </mxCell>
        <mxCell id="480" value="&lt;font style=&quot;font-size: 10px;&quot;&gt;Distributet VM&lt;/font&gt;" style="rounded=0;whiteSpace=wrap;html=1;strokeColor=#d6b656;strokeWidth=2;fillColor=none;rotation=0;gradientColor=#ffd966;fontColor=default;" parent="1" vertex="1">
          <mxGeometry x="919.56" y="339.57" width="70" height="19.43" as="geometry" />
        </mxCell>
        <mxCell id="481" value="Blochain Node&lt;br&gt;(e.g. validator)" style="rounded=0;whiteSpace=wrap;html=1;labelBackgroundColor=none;strokeColor=#2D7600;strokeWidth=3;fontSize=9;fillColor=none;fontColor=default;" parent="1" vertex="1">
          <mxGeometry x="839.56" y="299.43" width="70" height="30" as="geometry" />
        </mxCell>
        <mxCell id="489" style="edgeStyle=none;html=1;exitX=1;exitY=0.5;exitDx=0;exitDy=0;entryX=0;entryY=0;entryDx=0;entryDy=0;dashed=1;strokeColor=default;strokeWidth=1;fontSize=8;fontColor=default;startArrow=classic;startFill=1;endArrow=classic;endFill=1;" parent="1" source="482" target="453" edge="1">
          <mxGeometry relative="1" as="geometry" />
        </mxCell>
        <mxCell id="482" value="&lt;font style=&quot;font-size: 8px;&quot;&gt;2to3 Service Node&lt;br&gt;(e.g. container)&lt;br&gt;&lt;/font&gt;" style="rounded=0;whiteSpace=wrap;html=1;labelBackgroundColor=none;strokeColor=#2D7600;strokeWidth=3;fontSize=9;fillColor=none;fontColor=default;" parent="1" vertex="1">
          <mxGeometry x="919.56" y="298.93" width="70" height="30.5" as="geometry" />
        </mxCell>
        <mxCell id="488" value="" style="group" parent="1" vertex="1" connectable="0">
          <mxGeometry x="1019.9299999999998" y="340" width="79.63" height="78.88" as="geometry" />
        </mxCell>
        <mxCell id="444" value="" style="ellipse;whiteSpace=wrap;html=1;aspect=fixed;dashed=1;strokeColor=default;strokeWidth=2;fontSize=10;fontColor=default;fillColor=none;container=0;" parent="488" vertex="1">
          <mxGeometry width="78.87999999999997" height="78.87999999999997" as="geometry" />
        </mxCell>
        <mxCell id="449" value="" style="whiteSpace=wrap;html=1;aspect=fixed;fillColor=#a20025;strokeColor=#6F0000;fontColor=default;container=0;" parent="488" vertex="1">
          <mxGeometry x="6.873771580345616" y="32.91031429836221" width="12.570517928286845" height="12.570517928286845" as="geometry" />
        </mxCell>
        <mxCell id="451" value="" style="whiteSpace=wrap;html=1;aspect=fixed;fillColor=#a20025;strokeColor=#6F0000;fontColor=default;container=0;" parent="488" vertex="1">
          <mxGeometry x="61.86394422310793" y="32.91031429836221" width="12.570517928286845" height="12.570517928286845" as="geometry" />
        </mxCell>
        <mxCell id="452" style="edgeStyle=none;html=1;exitX=1;exitY=1;exitDx=0;exitDy=0;entryX=0;entryY=0;entryDx=0;entryDy=0;endArrow=none;endFill=0;fillColor=#a20025;strokeColor=#6F0000;fontColor=default;" parent="488" source="453" target="451" edge="1">
          <mxGeometry relative="1" as="geometry" />
        </mxCell>
        <mxCell id="453" value="" style="whiteSpace=wrap;html=1;aspect=fixed;fillColor=#a20025;strokeColor=#6F0000;fontColor=default;container=0;" parent="488" vertex="1">
          <mxGeometry x="34.36885790172677" y="6.582062859672442" width="12.570517928286845" height="12.570517928286845" as="geometry" />
        </mxCell>
        <mxCell id="454" style="edgeStyle=none;html=1;exitX=1;exitY=0;exitDx=0;exitDy=0;entryX=0;entryY=1;entryDx=0;entryDy=0;endArrow=none;endFill=0;fillColor=#a20025;strokeColor=#6F0000;fontColor=default;" parent="488" source="449" target="453" edge="1">
          <mxGeometry relative="1" as="geometry" />
        </mxCell>
        <mxCell id="455" style="edgeStyle=none;html=1;exitX=0;exitY=0;exitDx=0;exitDy=0;entryX=1;entryY=1;entryDx=0;entryDy=0;endArrow=none;endFill=0;fillColor=#a20025;strokeColor=#6F0000;fontColor=default;" parent="488" source="456" target="449" edge="1">
          <mxGeometry relative="1" as="geometry" />
        </mxCell>
        <mxCell id="456" value="" style="whiteSpace=wrap;html=1;aspect=fixed;fillColor=#a20025;strokeColor=#6F0000;fontColor=default;container=0;" parent="488" vertex="1">
          <mxGeometry x="34.36885790172677" y="59.23856573705166" width="12.570517928286845" height="12.570517928286845" as="geometry" />
        </mxCell>
        <mxCell id="457" style="edgeStyle=none;html=1;exitX=0;exitY=1;exitDx=0;exitDy=0;entryX=1;entryY=0;entryDx=0;entryDy=0;endArrow=none;endFill=0;fillColor=#a20025;strokeColor=#6F0000;fontColor=default;" parent="488" source="451" target="456" edge="1">
          <mxGeometry relative="1" as="geometry" />
        </mxCell>
        <mxCell id="458" style="edgeStyle=none;html=1;exitX=1;exitY=0.5;exitDx=0;exitDy=0;entryX=-0.052;entryY=0.506;entryDx=0;entryDy=0;entryPerimeter=0;endArrow=none;endFill=0;fillColor=#a20025;strokeColor=#6F0000;fontColor=default;" parent="488" source="463" target="451" edge="1">
          <mxGeometry relative="1" as="geometry" />
        </mxCell>
        <mxCell id="459" style="edgeStyle=none;html=1;exitX=0.5;exitY=0;exitDx=0;exitDy=0;entryX=0.5;entryY=1;entryDx=0;entryDy=0;endArrow=none;endFill=0;fillColor=#a20025;strokeColor=#6F0000;fontColor=default;" parent="488" source="463" target="453" edge="1">
          <mxGeometry relative="1" as="geometry" />
        </mxCell>
        <mxCell id="460" style="edgeStyle=none;html=1;exitX=0.5;exitY=1;exitDx=0;exitDy=0;entryX=0.5;entryY=0;entryDx=0;entryDy=0;endArrow=none;endFill=0;fillColor=#a20025;strokeColor=#6F0000;fontColor=default;" parent="488" source="463" target="456" edge="1">
          <mxGeometry relative="1" as="geometry" />
        </mxCell>
        <mxCell id="463" value="" style="whiteSpace=wrap;html=1;aspect=fixed;fillColor=#a20025;strokeColor=#6F0000;fontColor=default;container=0;" parent="488" vertex="1">
          <mxGeometry x="34.36885790172677" y="32.91031429836221" width="12.570517928286845" height="12.570517928286845" as="geometry" />
        </mxCell>
        <mxCell id="464" style="edgeStyle=none;html=1;exitX=1;exitY=0.5;exitDx=0;exitDy=0;entryX=0;entryY=0.5;entryDx=0;entryDy=0;endArrow=none;endFill=0;fillColor=#a20025;strokeColor=#6F0000;fontColor=default;" parent="488" source="449" target="463" edge="1">
          <mxGeometry relative="1" as="geometry" />
        </mxCell>
        <mxCell id="492" style="edgeStyle=none;html=1;exitX=0;exitY=0.5;exitDx=0;exitDy=0;entryX=1;entryY=0.5;entryDx=0;entryDy=0;dashed=1;strokeColor=default;strokeWidth=1;fontSize=8;fontColor=default;startArrow=classic;startFill=1;endArrow=classic;endFill=1;" parent="1" source="449" target="480" edge="1">
          <mxGeometry relative="1" as="geometry" />
        </mxCell>
        <mxCell id="494" style="edgeStyle=none;html=1;exitX=0;exitY=0.5;exitDx=0;exitDy=0;entryX=0.503;entryY=1.027;entryDx=0;entryDy=0;dashed=1;strokeColor=default;strokeWidth=1;fontSize=8;fontColor=default;startArrow=none;startFill=0;endArrow=classic;endFill=1;entryPerimeter=0;" parent="1" source="449" target="479" edge="1">
          <mxGeometry relative="1" as="geometry">
            <Array as="points">
              <mxPoint x="875" y="380" />
            </Array>
          </mxGeometry>
        </mxCell>
        <mxCell id="495" style="edgeStyle=none;html=1;exitX=0.5;exitY=0;exitDx=0;exitDy=0;entryX=0.5;entryY=0;entryDx=0;entryDy=0;dashed=1;strokeColor=default;strokeWidth=1;fontSize=8;fontColor=default;startArrow=classic;startFill=1;endArrow=classic;endFill=1;" parent="1" source="453" target="481" edge="1">
          <mxGeometry relative="1" as="geometry">
            <Array as="points">
              <mxPoint x="1060.56" y="280" />
              <mxPoint x="874.56" y="280" />
            </Array>
          </mxGeometry>
        </mxCell>
        <mxCell id="496" style="edgeStyle=none;html=1;exitX=0.5;exitY=1;exitDx=0;exitDy=0;entryX=0.5;entryY=1;entryDx=0;entryDy=0;dashed=1;strokeColor=default;strokeWidth=1;fontSize=8;fontColor=default;startArrow=classic;startFill=1;endArrow=classic;endFill=1;" parent="1" source="456" target="470" edge="1">
          <mxGeometry relative="1" as="geometry">
            <Array as="points">
              <mxPoint x="1059.56" y="480" />
              <mxPoint x="874.56" y="480" />
            </Array>
          </mxGeometry>
        </mxCell>
        <mxCell id="497" style="edgeStyle=none;html=1;exitX=0;exitY=0.5;exitDx=0;exitDy=0;entryX=0.5;entryY=0;entryDx=0;entryDy=0;dashed=1;strokeColor=default;strokeWidth=1;fontSize=8;fontColor=default;startArrow=classic;startFill=1;endArrow=classic;endFill=1;" parent="1" source="449" target="472" edge="1">
          <mxGeometry relative="1" as="geometry">
            <Array as="points">
              <mxPoint x="875" y="380" />
            </Array>
          </mxGeometry>
        </mxCell>
        <mxCell id="498" style="edgeStyle=none;html=1;exitX=1;exitY=0.5;exitDx=0;exitDy=0;dashed=1;strokeColor=default;strokeWidth=1;fontSize=8;fontColor=default;startArrow=classic;startFill=1;endArrow=classic;endFill=1;entryX=0;entryY=0.457;entryDx=0;entryDy=0;entryPerimeter=0;" parent="1" source="451" target="501" edge="1">
          <mxGeometry relative="1" as="geometry">
            <mxPoint x="1110" y="379" as="targetPoint" />
          </mxGeometry>
        </mxCell>
        <mxCell id="499" style="edgeStyle=none;html=1;exitX=1;exitY=0.5;exitDx=0;exitDy=0;dashed=1;strokeColor=default;strokeWidth=1;fontSize=8;fontColor=default;startArrow=classic;startFill=1;endArrow=classic;endFill=1;" parent="1" source="453" edge="1">
          <mxGeometry relative="1" as="geometry">
            <mxPoint x="1140" y="360" as="targetPoint" />
          </mxGeometry>
        </mxCell>
        <mxCell id="500" style="edgeStyle=none;html=1;exitX=1;exitY=0.5;exitDx=0;exitDy=0;dashed=1;strokeColor=default;strokeWidth=1;fontSize=8;fontColor=default;startArrow=classic;startFill=1;endArrow=classic;endFill=1;" parent="1" source="456" edge="1">
          <mxGeometry relative="1" as="geometry">
            <mxPoint x="1140" y="400" as="targetPoint" />
          </mxGeometry>
        </mxCell>
        <mxCell id="501" value="" style="sketch=0;html=1;aspect=fixed;strokeColor=none;shadow=0;align=center;verticalAlign=top;fillColor=#3B8DF1;shape=mxgraph.gcp2.globe_world;strokeWidth=3;" parent="1" vertex="1">
          <mxGeometry x="1120" y="362.98" width="36.93" height="35.08" as="geometry" />
        </mxCell>
        <mxCell id="503" value="&lt;font size=&quot;1&quot; style=&quot;&quot;&gt;&lt;b style=&quot;font-size: 25px;&quot;&gt;...&lt;/b&gt;&lt;/font&gt;" style="text;html=1;strokeColor=none;fillColor=none;align=center;verticalAlign=middle;whiteSpace=wrap;rounded=0;labelBackgroundColor=none;strokeWidth=1;fontSize=10;fontColor=default;" parent="1" vertex="1">
          <mxGeometry x="884.56" y="350" width="60" height="30" as="geometry" />
        </mxCell>
        <mxCell id="504" value="&lt;font size=&quot;1&quot; style=&quot;&quot;&gt;&lt;b style=&quot;font-size: 25px;&quot;&gt;...&lt;/b&gt;&lt;/font&gt;" style="text;html=1;strokeColor=none;fillColor=none;align=center;verticalAlign=middle;whiteSpace=wrap;rounded=0;labelBackgroundColor=none;strokeWidth=1;fontSize=10;fontColor=default;" parent="1" vertex="1">
          <mxGeometry x="884.56" y="368.06" width="60" height="30" as="geometry" />
        </mxCell>
        <mxCell id="506" value="" style="aspect=fixed;perimeter=ellipsePerimeter;html=1;align=center;shadow=0;dashed=0;fontColor=#4277BB;labelBackgroundColor=#ffffff;fontSize=12;spacingTop=3;image;image=img/lib/ibm/blockchain/wallet.svg;strokeColor=default;strokeWidth=1;fillColor=none;" parent="1" vertex="1">
          <mxGeometry x="615" y="540" width="40" height="40" as="geometry" />
        </mxCell>
        <mxCell id="507" value="" style="aspect=fixed;perimeter=ellipsePerimeter;html=1;align=center;shadow=0;dashed=0;fontColor=#4277BB;labelBackgroundColor=#ffffff;fontSize=12;spacingTop=3;image;image=img/lib/ibm/blockchain/wallet.svg;strokeColor=default;strokeWidth=1;fillColor=none;" parent="1" vertex="1">
          <mxGeometry x="736.75" y="540" width="40" height="40" as="geometry" />
        </mxCell>
        <mxCell id="508" value="" style="aspect=fixed;perimeter=ellipsePerimeter;html=1;align=center;shadow=0;dashed=0;fontColor=#4277BB;labelBackgroundColor=#ffffff;fontSize=12;spacingTop=3;image;image=img/lib/ibm/blockchain/wallet.svg;strokeColor=default;strokeWidth=1;fillColor=none;" parent="1" vertex="1">
          <mxGeometry x="863.25" y="540" width="40" height="40" as="geometry" />
        </mxCell>
        <mxCell id="509" value="" style="aspect=fixed;perimeter=ellipsePerimeter;html=1;align=center;shadow=0;dashed=0;fontColor=#4277BB;labelBackgroundColor=#ffffff;fontSize=12;spacingTop=3;image;image=img/lib/ibm/blockchain/wallet.svg;strokeColor=default;strokeWidth=1;fillColor=none;" parent="1" vertex="1">
          <mxGeometry x="990" y="540" width="40" height="40" as="geometry" />
        </mxCell>
        <mxCell id="510" value="" style="aspect=fixed;perimeter=ellipsePerimeter;html=1;align=center;shadow=0;dashed=0;fontColor=#4277BB;labelBackgroundColor=#ffffff;fontSize=12;spacingTop=3;image;image=img/lib/ibm/blockchain/wallet.svg;strokeColor=default;strokeWidth=1;fillColor=none;" parent="1" vertex="1">
          <mxGeometry x="1103.5" y="539.5" width="40" height="40" as="geometry" />
        </mxCell>
        <mxCell id="511" value="" style="aspect=fixed;perimeter=ellipsePerimeter;html=1;align=center;shadow=0;dashed=0;fontColor=#4277BB;labelBackgroundColor=#ffffff;fontSize=12;spacingTop=3;image;image=img/lib/ibm/blockchain/wallet.svg;strokeColor=default;strokeWidth=1;fillColor=none;" parent="1" vertex="1">
          <mxGeometry x="540" y="250.61" width="40" height="40" as="geometry" />
        </mxCell>
        <mxCell id="493" style="edgeStyle=none;html=1;exitX=1;exitY=0.5;exitDx=0;exitDy=0;entryX=0;entryY=0.5;entryDx=0;entryDy=0;dashed=1;strokeColor=default;strokeWidth=1;fontSize=8;fontColor=default;startArrow=classic;startFill=1;endArrow=classic;endFill=1;" parent="1" source="474" target="449" edge="1">
          <mxGeometry relative="1" as="geometry" />
        </mxCell>
      </root>
    </mxGraphModel>
  </diagram>
</mxfile>
